<svg width="1440" height="1024" viewBox="0 0 1440 1024" fill="none" xmlns="http://www.w3.org/2000/svg">
<g clip-path="url(#clip0_2925:18754)">
<rect width="1440" height="1024" fill="#0D2A3E"/>
<path d="M196.33 188.998C196.33 197.16 184.087 197.16 184.087 188.998C184.087 181.039 196.33 181.039 196.33 188.998ZM185.311 202.669V250.01H195.106V202.669H185.311Z" fill="#FDF3D8"/>
<path d="M218.365 202.666V255.516C218.365 267.351 214.08 273.677 203.469 273.677C200.204 273.677 196.736 272.86 193.471 270.616L196.94 262.862C198.98 263.882 201.021 264.494 203.061 264.29C207.754 264.29 208.571 261.025 208.571 255.516V202.666H218.365ZM207.346 188.79C207.346 196.952 219.59 196.952 219.59 188.79C219.59 180.832 207.346 180.832 207.346 188.79Z" fill="#FDF3D8"/>
<path d="M261.832 214.501C258.159 211.032 254.077 210.012 249.384 210.012C243.263 210.012 239.386 211.848 239.386 215.725C239.386 219.602 243.671 221.235 249.588 221.847C258.363 222.663 269.586 224.499 269.586 236.743C269.586 245.517 261.832 251.639 249.588 251.639C241.834 251.639 234.284 250.006 228.163 242.864L233.264 235.926C237.753 240.824 244.283 242.864 249.792 242.864C254.486 242.864 259.791 241.232 259.791 236.743C259.791 232.457 255.914 230.825 248.976 230.213C239.998 229.397 229.795 226.54 229.795 216.133C229.795 205.726 240.61 201.849 249.384 201.849C256.73 201.849 262.24 203.482 267.545 208.175L261.832 214.501Z" fill="#FDF3D8"/>
<path d="M289.382 183.281V210.42C292.443 204.91 300.197 202.054 305.911 202.054C319.582 202.054 329.785 210.624 329.785 226.54C329.785 242.048 319.378 251.027 305.707 251.027C299.381 251.027 293.055 248.578 289.382 242.661L288.77 250.211H279.588V183.281H289.382ZM289.995 226.336C289.995 235.519 296.728 241.64 305.095 241.64C313.257 241.64 319.991 235.723 319.991 226.336C319.991 216.746 313.257 211.032 305.095 211.032C296.728 211.032 289.995 217.358 289.995 226.336Z" fill="#FDF3D8"/>
<path d="M349.578 202.87L350.19 208.992C353.659 202.87 358.964 201.646 364.066 201.646C368.759 201.646 373.044 203.278 375.697 205.727L371.208 214.297C368.759 212.461 366.514 211.44 362.841 211.44C356.108 211.44 350.19 215.726 350.19 224.296V249.803H340.396V202.87H349.578Z" fill="#FDF3D8"/>
<path d="M388.552 230.213C389.368 237.355 395.286 242.049 403.856 242.049C408.55 242.049 414.671 240.212 417.528 236.947L423.854 243.069C418.956 248.374 410.794 251.027 403.652 251.027C388.144 251.027 378.146 241.232 378.146 226.132C378.146 211.849 388.144 201.646 402.836 201.646C418.14 201.646 428.343 210.828 426.506 230.213H388.552ZM417.324 221.847C416.712 214.297 411.202 210.42 403.448 210.42C396.306 210.42 390.389 214.297 388.756 221.847H417.324Z" fill="#FDF3D8"/>
<path d="M446.7 183.281V222.255L464.248 202.87H476.288V203.482L455.882 225.112L478.94 249.394V250.006H466.901L446.7 228.173V250.006H436.701V183.281H446.7Z" fill="#FDF3D8"/>
<path d="M490.371 230.213C491.187 237.355 497.105 242.049 505.675 242.049C510.368 242.049 516.49 240.212 519.347 236.947L525.672 243.069C520.775 248.374 512.613 251.027 505.471 251.027C489.963 251.027 479.964 241.232 479.964 226.132C479.964 211.849 489.963 201.646 504.655 201.646C519.959 201.646 530.162 210.828 528.325 230.213H490.371ZM519.347 221.847C518.735 214.297 513.225 210.42 505.471 210.42C498.329 210.42 492.412 214.297 490.779 221.847H519.347Z" fill="#FDF3D8"/>
<path d="M547.914 202.87L548.527 208.992C551.995 202.87 557.301 201.646 562.402 201.646C567.095 201.646 571.381 203.278 574.033 205.727L569.544 214.297C567.095 212.461 564.851 211.44 561.178 211.44C554.444 211.44 548.527 215.726 548.527 224.296V249.803H538.732V202.87H547.914Z" fill="#FDF3D8"/>
<path d="M205.714 142.878C203.265 140.633 200.816 140.021 197.96 140.021C194.083 140.021 191.634 141.245 191.634 143.49C191.634 145.939 194.287 146.959 198.164 147.367C203.673 147.775 210.815 148.999 210.815 156.753C210.815 162.263 205.918 166.14 198.164 166.14C193.266 166.14 188.573 165.12 184.492 160.63L187.757 156.141C190.614 159.202 194.695 160.426 198.164 160.63C201.021 160.63 204.489 159.61 204.489 156.753C204.489 154.101 202.041 153.08 197.552 152.672C192.042 152.06 185.512 150.224 185.512 143.694C185.512 137.164 192.246 134.716 197.96 134.716C202.449 134.716 206.122 135.736 209.387 138.797L205.714 142.878Z" fill="#FDF3D8"/>
<path d="M226.32 127.166V135.736H235.095V141.042H226.32V155.121C226.32 158.182 227.749 160.019 230.606 160.019C231.83 160.019 233.258 159.61 234.483 158.998L236.319 164.304C234.279 165.12 232.442 165.732 230.402 165.732C223.872 165.936 220.199 162.263 220.199 155.325V141.042H214.485V135.736H220.199V127.778L226.32 127.166Z" fill="#FDF3D8"/>
<path d="M247.137 135.736V151.652C247.137 156.753 249.994 160.222 255.299 160.222C260.197 160.222 263.666 156.141 263.666 151.244V135.736H269.787V165.528H264.074L263.666 161.039C260.809 164.303 257.544 165.936 253.463 165.936C246.117 165.936 240.812 160.63 240.812 151.652V135.736H247.137Z" fill="#FDF3D8"/>
<path d="M307.948 123.289V165.528H302.031L301.622 160.835C299.174 164.712 295.297 166.141 291.216 166.141C282.645 166.141 275.912 160.427 275.912 150.632C275.912 140.43 282.441 135.124 291.012 135.124C294.685 135.124 299.582 136.961 301.418 140.43V123.289H307.948ZM282.441 150.428C282.441 156.346 286.522 160.223 291.828 160.223C296.929 160.223 301.214 156.346 301.214 150.428C301.214 144.715 296.929 140.838 291.828 140.838C286.726 140.838 282.441 144.307 282.441 150.428Z" fill="#FDF3D8"/>
<path d="M323.456 126.962C323.456 132.063 315.702 132.063 315.702 126.962C315.702 121.86 323.456 121.86 323.456 126.962ZM316.518 135.532V165.324H322.64V135.532H316.518Z" fill="#FDF3D8"/>
<path d="M359.977 150.632C359.977 159.407 353.856 166.14 344.469 166.14C335.083 166.14 329.165 159.407 329.165 150.632C329.165 141.858 335.287 135.124 344.469 135.124C353.652 135.124 359.977 141.858 359.977 150.632ZM335.491 150.632C335.491 155.938 338.96 160.223 344.673 160.223C350.387 160.223 353.856 155.938 353.856 150.632C353.856 145.327 350.183 140.838 344.673 140.838C338.96 140.838 335.491 145.327 335.491 150.632Z" fill="#FDF3D8"/>
<path d="M136.54 134.716L151.436 123.493C153.068 122.269 155.313 123.493 155.313 125.329V143.898C151.844 144.306 147.967 143.898 144.498 142.062C140.825 140.633 138.172 137.981 136.54 134.716Z" fill="#F4C53D"/>
<path d="M110.22 154.509L129.605 139.818C132.258 143.899 135.931 147.572 140.624 149.816C145.317 152.061 150.418 152.877 155.112 152.469V176.751C146.541 177.159 137.767 175.527 129.605 171.446C121.443 167.365 114.913 161.651 110.22 154.509Z" fill="#FDF3D8"/>
<path d="M155.111 213.276C141.44 213.48 126.544 210.623 113.484 204.094C100.017 197.36 89.2017 187.769 81.0396 176.342C82.672 175.118 84.3044 173.894 86.1409 172.465L103.281 159.61C108.791 167.772 116.545 174.506 125.931 179.199C135.318 183.892 145.317 185.933 155.111 185.525V213.276Z" fill="#FDF3D8"/>
<mask id="mask0_2925:18754" style="mask-type:alpha" maskUnits="userSpaceOnUse" x="69" y="182" width="85" height="92">
<path d="M109.811 211.644C123.686 218.582 139.195 222.051 153.682 221.847C147.969 262.862 105.73 284.899 69 267.351C81.0392 251.639 84.3041 243.068 76.3459 224.091C65.327 197.156 69.4081 188.79 74.7135 182.056C83.6919 194.299 95.323 204.502 109.811 211.644Z" fill="#FEE19D"/>
</mask>
<g mask="url(#mask0_2925:18754)">
<path d="M109.811 211.644C123.686 218.582 139.195 222.051 153.682 221.847C147.969 262.862 105.73 284.899 69 267.351C81.0392 251.639 84.3041 243.068 76.3459 224.091C65.327 197.156 69.4081 188.79 74.7135 182.056C83.6919 194.299 95.323 204.502 109.811 211.644Z" fill="#FEE19D"/>
<path d="M90.4268 160.426C112.261 137.98 125.524 158.59 135.523 164.711C203.065 197.768 207.758 240.211 126.544 264.698C128.585 239.191 106.955 228.376 102.874 227.152C67.9808 216.133 73.6943 186.749 75.5308 179.403C81.8565 166.344 89.6106 161.242 90.4268 160.426Z" fill="#F4C53D"/>
<path d="M89.6116 271.431C92.6724 295.306 72.6752 315.303 48.8008 312.242C32.6806 310.202 19.417 297.142 17.3765 280.818C14.3157 256.944 34.313 236.946 58.1873 240.007C74.5116 242.252 87.5711 255.311 89.6116 271.431Z" fill="#50514F"/>
</g>
<path d="M103.78 540.915L97.157 567H93.05L87.019 545.688L80.988 567H76.881L70.221 540.915H73.958L78.953 563.078L85.132 540.915H88.869L95.048 563.004L100.08 540.915H103.78ZM126.41 555.715C126.41 556.43 126.361 557.047 126.262 557.565H110.019C110.093 559.884 110.747 561.623 111.98 562.782C113.238 563.941 114.768 564.521 116.568 564.521C118.196 564.521 119.553 564.114 120.638 563.3C121.748 562.461 122.427 561.351 122.673 559.97H126.262C126.016 561.376 125.461 562.634 124.597 563.744C123.759 564.854 122.661 565.717 121.304 566.334C119.948 566.951 118.418 567.259 116.716 567.259C114.768 567.259 113.041 566.84 111.536 566.001C110.032 565.162 108.848 563.966 107.984 562.412C107.146 560.833 106.726 558.983 106.726 556.862C106.726 554.741 107.146 552.891 107.984 551.312C108.848 549.733 110.032 548.525 111.536 547.686C113.041 546.847 114.768 546.428 116.716 546.428C118.69 546.428 120.404 546.847 121.859 547.686C123.339 548.525 124.462 549.647 125.226 551.053C126.016 552.459 126.41 554.013 126.41 555.715ZM123.006 555.937C123.08 554.432 122.834 553.174 122.266 552.163C121.699 551.152 120.922 550.399 119.935 549.906C118.949 549.413 117.876 549.166 116.716 549.166C114.866 549.166 113.312 549.746 112.054 550.905C110.796 552.04 110.118 553.717 110.019 555.937H123.006ZM148.281 546.428C150.254 546.428 151.919 546.921 153.276 547.908C154.657 548.895 155.619 550.214 156.162 551.867V546.687H159.529V567H156.162V561.82C155.619 563.473 154.657 564.792 153.276 565.779C151.919 566.766 150.254 567.259 148.281 567.259C146.48 567.259 144.877 566.84 143.471 566.001C142.065 565.162 140.955 563.966 140.141 562.412C139.352 560.833 138.957 558.983 138.957 556.862C138.957 554.741 139.352 552.891 140.141 551.312C140.955 549.733 142.065 548.525 143.471 547.686C144.877 546.847 146.48 546.428 148.281 546.428ZM149.243 549.425C147.171 549.425 145.506 550.091 144.248 551.423C143.015 552.73 142.398 554.543 142.398 556.862C142.398 559.181 143.015 561.006 144.248 562.338C145.506 563.645 147.171 564.299 149.243 564.299C150.575 564.299 151.759 563.991 152.795 563.374C153.856 562.757 154.682 561.894 155.274 560.784C155.866 559.649 156.162 558.342 156.162 556.862C156.162 555.382 155.866 554.075 155.274 552.94C154.682 551.805 153.856 550.942 152.795 550.35C151.759 549.733 150.575 549.425 149.243 549.425ZM168.255 550.794C168.921 549.388 169.895 548.303 171.178 547.538C172.46 546.749 173.99 546.354 175.766 546.354V550.017H174.73C172.83 550.017 171.276 550.51 170.068 551.497C168.859 552.459 168.255 554.062 168.255 556.307V567H164.888V546.687H168.255V550.794ZM197.773 555.715C197.773 556.43 197.723 557.047 197.625 557.565H181.382C181.456 559.884 182.109 561.623 183.343 562.782C184.601 563.941 186.13 564.521 187.931 564.521C189.559 564.521 190.915 564.114 192.001 563.3C193.111 562.461 193.789 561.351 194.036 559.97H197.625C197.378 561.376 196.823 562.634 195.96 563.744C195.121 564.854 194.023 565.717 192.667 566.334C191.31 566.951 189.781 567.259 188.079 567.259C186.13 567.259 184.403 566.84 182.899 566.001C181.394 565.162 180.21 563.966 179.347 562.412C178.508 560.833 178.089 558.983 178.089 556.862C178.089 554.741 178.508 552.891 179.347 551.312C180.21 549.733 181.394 548.525 182.899 547.686C184.403 546.847 186.13 546.428 188.079 546.428C190.052 546.428 191.766 546.847 193.222 547.686C194.702 548.525 195.824 549.647 196.589 551.053C197.378 552.459 197.773 554.013 197.773 555.715ZM194.369 555.937C194.443 554.432 194.196 553.174 193.629 552.163C193.061 551.152 192.284 550.399 191.298 549.906C190.311 549.413 189.238 549.166 188.079 549.166C186.229 549.166 184.675 549.746 183.417 550.905C182.159 552.04 181.48 553.717 181.382 555.937H194.369ZM220.309 546.428C222.899 546.428 225.045 547.119 226.747 548.5C228.449 549.881 229.498 551.731 229.892 554.05H226.34C226.094 552.595 225.415 551.46 224.305 550.646C223.22 549.807 221.863 549.388 220.235 549.388C219.051 549.388 217.966 549.659 216.979 550.202C216.017 550.745 215.24 551.583 214.648 552.718C214.056 553.828 213.76 555.209 213.76 556.862C213.76 558.515 214.056 559.908 214.648 561.043C215.24 562.153 216.017 562.979 216.979 563.522C217.966 564.065 219.051 564.336 220.235 564.336C221.863 564.336 223.22 563.917 224.305 563.078C225.415 562.239 226.094 561.092 226.34 559.637H229.892C229.498 561.98 228.449 563.843 226.747 565.224C225.045 566.581 222.899 567.259 220.309 567.259C218.361 567.259 216.634 566.84 215.129 566.001C213.625 565.162 212.441 563.966 211.577 562.412C210.739 560.833 210.319 558.983 210.319 556.862C210.319 554.741 210.739 552.891 211.577 551.312C212.441 549.733 213.625 548.525 215.129 547.686C216.634 546.847 218.361 546.428 220.309 546.428ZM252.355 546.687V567H248.988V562.227C248.47 563.88 247.545 565.15 246.213 566.038C244.905 566.901 243.376 567.333 241.625 567.333C239.281 567.333 237.382 566.581 235.927 565.076C234.471 563.547 233.744 561.364 233.744 558.527V546.687H237.111V558.194C237.111 560.217 237.629 561.783 238.665 562.893C239.701 563.978 241.107 564.521 242.883 564.521C244.733 564.521 246.213 563.929 247.323 562.745C248.433 561.536 248.988 559.785 248.988 557.491V546.687H252.355ZM261.116 550.794C261.782 549.388 262.756 548.303 264.039 547.538C265.322 546.749 266.851 546.354 268.627 546.354V550.017H267.591C265.692 550.017 264.138 550.51 262.929 551.497C261.72 552.459 261.116 554.062 261.116 556.307V567H257.749V546.687H261.116V550.794ZM275.316 550.794C275.982 549.388 276.956 548.303 278.239 547.538C279.522 546.749 281.051 546.354 282.827 546.354V550.017H281.791C279.892 550.017 278.338 550.51 277.129 551.497C275.92 552.459 275.316 554.062 275.316 556.307V567H271.949V546.687H275.316V550.794ZM304.834 555.715C304.834 556.43 304.785 557.047 304.686 557.565H288.443C288.517 559.884 289.171 561.623 290.404 562.782C291.662 563.941 293.192 564.521 294.992 564.521C296.62 564.521 297.977 564.114 299.062 563.3C300.172 562.461 300.851 561.351 301.097 559.97H304.686C304.44 561.376 303.885 562.634 303.021 563.744C302.183 564.854 301.085 565.717 299.728 566.334C298.372 566.951 296.842 567.259 295.14 567.259C293.192 567.259 291.465 566.84 289.96 566.001C288.456 565.162 287.272 563.966 286.408 562.412C285.57 560.833 285.15 558.983 285.15 556.862C285.15 554.741 285.57 552.891 286.408 551.312C287.272 549.733 288.456 548.525 289.96 547.686C291.465 546.847 293.192 546.428 295.14 546.428C297.114 546.428 298.828 546.847 300.283 547.686C301.763 548.525 302.886 549.647 303.65 551.053C304.44 552.459 304.834 554.013 304.834 555.715ZM301.43 555.937C301.504 554.432 301.258 553.174 300.69 552.163C300.123 551.152 299.346 550.399 298.359 549.906C297.373 549.413 296.3 549.166 295.14 549.166C293.29 549.166 291.736 549.746 290.478 550.905C289.22 552.04 288.542 553.717 288.443 555.937H301.43ZM319.931 546.354C322.299 546.354 324.211 547.119 325.666 548.648C327.121 550.153 327.849 552.336 327.849 555.197V567H324.482V555.493C324.482 553.47 323.964 551.916 322.928 550.831C321.892 549.746 320.486 549.203 318.71 549.203C316.86 549.203 315.38 549.807 314.27 551.016C313.16 552.2 312.605 553.939 312.605 556.233V567H309.238V546.687H312.605V551.497C313.123 549.844 314.036 548.574 315.343 547.686C316.675 546.798 318.204 546.354 319.931 546.354ZM342.708 564.04V567H340.192C338.12 567 336.566 566.507 335.53 565.52C334.518 564.533 334.013 562.881 334.013 560.562V549.61H330.979V546.687H334.013V541.618H337.417V546.687H342.671V549.61H337.417V560.636C337.417 561.943 337.651 562.844 338.12 563.337C338.613 563.806 339.452 564.04 340.636 564.04H342.708ZM350.183 539.62V567H346.816V539.62H350.183ZM357.003 546.687L363.589 562.671L369.694 546.687H373.431L361.369 576.62H357.558L361.776 566.667L353.229 546.687H357.003ZM396.87 546.428C398.671 546.428 400.274 546.847 401.68 547.686C403.086 548.525 404.184 549.733 404.973 551.312C405.787 552.891 406.194 554.741 406.194 556.862C406.194 558.983 405.787 560.833 404.973 562.412C404.184 563.966 403.086 565.162 401.68 566.001C400.274 566.84 398.671 567.259 396.87 567.259C394.897 567.259 393.219 566.766 391.838 565.779C390.481 564.768 389.544 563.448 389.026 561.82V567H385.659V539.62H389.026V551.867C389.544 550.239 390.481 548.932 391.838 547.945C393.219 546.934 394.897 546.428 396.87 546.428ZM395.908 549.425C394.601 549.425 393.417 549.733 392.356 550.35C391.295 550.942 390.469 551.805 389.877 552.94C389.285 554.075 388.989 555.382 388.989 556.862C388.989 558.342 389.285 559.649 389.877 560.784C390.469 561.894 391.295 562.757 392.356 563.374C393.417 563.991 394.601 564.299 395.908 564.299C398.005 564.299 399.67 563.645 400.903 562.338C402.161 561.006 402.79 559.181 402.79 556.862C402.79 554.543 402.161 552.73 400.903 551.423C399.67 550.091 398.005 549.425 395.908 549.425ZM428.647 546.687V567H425.28V562.227C424.762 563.88 423.837 565.15 422.505 566.038C421.197 566.901 419.668 567.333 417.917 567.333C415.573 567.333 413.674 566.581 412.219 565.076C410.763 563.547 410.036 561.364 410.036 558.527V546.687H413.403V558.194C413.403 560.217 413.921 561.783 414.957 562.893C415.993 563.978 417.399 564.521 419.175 564.521C421.025 564.521 422.505 563.929 423.615 562.745C424.725 561.536 425.28 559.785 425.28 557.491V546.687H428.647ZM440.405 546.428C442.699 546.428 444.537 547.032 445.918 548.241C447.324 549.425 448.175 551.028 448.471 553.051H445.252C445.104 551.842 444.598 550.856 443.735 550.091C442.896 549.302 441.762 548.907 440.331 548.907C439.122 548.907 438.173 549.203 437.482 549.795C436.816 550.362 436.483 551.139 436.483 552.126C436.483 552.866 436.705 553.47 437.149 553.939C437.618 554.383 438.185 554.728 438.851 554.975C439.542 555.197 440.479 555.444 441.663 555.715C443.168 556.06 444.376 556.418 445.289 556.788C446.226 557.133 447.016 557.701 447.657 558.49C448.323 559.279 448.656 560.34 448.656 561.672C448.656 563.325 448.027 564.669 446.769 565.705C445.536 566.741 443.883 567.259 441.811 567.259C439.394 567.259 437.42 566.679 435.891 565.52C434.362 564.361 433.461 562.745 433.19 560.673H436.446C436.569 561.906 437.1 562.905 438.037 563.67C438.999 564.435 440.257 564.817 441.811 564.817C442.97 564.817 443.871 564.521 444.512 563.929C445.178 563.337 445.511 562.56 445.511 561.598C445.511 560.809 445.277 560.18 444.808 559.711C444.339 559.242 443.76 558.885 443.069 558.638C442.378 558.391 441.429 558.132 440.22 557.861C438.715 557.516 437.507 557.17 436.594 556.825C435.706 556.48 434.941 555.937 434.3 555.197C433.683 554.432 433.375 553.409 433.375 552.126C433.375 550.424 434.004 549.055 435.262 548.019C436.52 546.958 438.234 546.428 440.405 546.428ZM454.561 546.687L461.147 562.671L467.252 546.687H470.989L458.927 576.62H455.116L459.334 566.667L450.787 546.687H454.561ZM511.116 546.687L505.27 567H501.644L496.057 550.461L490.433 567H486.77L480.998 546.687H484.402L488.731 563.781L494.355 546.687H497.87L503.531 563.744L507.897 546.687H511.116ZM523.469 546.428C525.417 546.428 527.156 546.847 528.686 547.686C530.24 548.525 531.448 549.733 532.312 551.312C533.2 552.891 533.644 554.741 533.644 556.862C533.644 558.983 533.2 560.833 532.312 562.412C531.448 563.966 530.24 565.162 528.686 566.001C527.156 566.84 525.417 567.259 523.469 567.259C521.52 567.259 519.769 566.84 518.215 566.001C516.685 565.162 515.477 563.966 514.589 562.412C513.701 560.833 513.257 558.983 513.257 556.862C513.257 554.741 513.701 552.891 514.589 551.312C515.477 549.733 516.685 548.525 518.215 547.686C519.769 546.847 521.52 546.428 523.469 546.428ZM523.469 549.388C522.26 549.388 521.138 549.659 520.102 550.202C519.09 550.745 518.264 551.583 517.623 552.718C517.006 553.828 516.698 555.209 516.698 556.862C516.698 558.49 517.006 559.871 517.623 561.006C518.264 562.116 519.09 562.942 520.102 563.485C521.138 564.028 522.26 564.299 523.469 564.299C524.677 564.299 525.787 564.028 526.799 563.485C527.835 562.942 528.661 562.116 529.278 561.006C529.919 559.871 530.24 558.49 530.24 556.862C530.24 555.209 529.919 553.828 529.278 552.718C528.661 551.583 527.835 550.745 526.799 550.202C525.787 549.659 524.677 549.388 523.469 549.388ZM541.398 550.794C542.064 549.388 543.038 548.303 544.321 547.538C545.604 546.749 547.133 546.354 548.909 546.354V550.017H547.873C545.974 550.017 544.42 550.51 543.211 551.497C542.002 552.459 541.398 554.062 541.398 556.307V567H538.031V546.687H541.398V550.794ZM563.368 567L555.598 557.861V567H552.231V539.62H555.598V555.53L563.257 546.687H567.364L558.262 556.788L567.586 567H563.368ZM569.959 540.73C569.959 540.113 570.168 539.62 570.588 539.25C571.007 538.855 571.562 538.658 572.253 538.658C572.943 538.658 573.498 538.855 573.918 539.25C574.337 539.62 574.547 540.113 574.547 540.73C574.547 541.347 574.337 541.852 573.918 542.247C573.498 542.617 572.943 542.802 572.253 542.802C571.562 542.802 571.007 542.617 570.588 542.247C570.168 541.852 569.959 541.347 569.959 540.73ZM573.918 546.687V567H570.551V546.687H573.918ZM590.024 546.354C592.392 546.354 594.304 547.119 595.759 548.648C597.214 550.153 597.942 552.336 597.942 555.197V567H594.575V555.493C594.575 553.47 594.057 551.916 593.021 550.831C591.985 549.746 590.579 549.203 588.803 549.203C586.953 549.203 585.473 549.807 584.363 551.016C583.253 552.2 582.698 553.939 582.698 556.233V567H579.331V546.687H582.698V551.497C583.216 549.844 584.129 548.574 585.436 547.686C586.768 546.798 588.297 546.354 590.024 546.354ZM611.431 546.428C613.405 546.428 615.07 546.921 616.426 547.908C617.808 548.895 618.77 550.214 619.312 551.867V546.687H622.679V567.333C622.679 569.208 622.285 570.873 621.495 572.328C620.706 573.783 619.596 574.918 618.165 575.732C616.735 576.546 615.07 576.953 613.17 576.953C610.432 576.953 608.2 576.287 606.473 574.955C604.747 573.648 603.649 571.872 603.18 569.627H606.51C606.905 570.984 607.645 572.044 608.73 572.809C609.84 573.598 611.259 573.993 612.985 573.993C614.811 573.993 616.315 573.401 617.499 572.217C618.708 571.058 619.312 569.43 619.312 567.333V561.82C618.77 563.473 617.808 564.792 616.426 565.779C615.07 566.766 613.405 567.259 611.431 567.259C609.631 567.259 608.027 566.84 606.621 566.001C605.215 565.162 604.105 563.966 603.291 562.412C602.502 560.833 602.107 558.983 602.107 556.862C602.107 554.741 602.502 552.891 603.291 551.312C604.105 549.733 605.215 548.525 606.621 547.686C608.027 546.847 609.631 546.428 611.431 546.428ZM612.393 549.425C610.321 549.425 608.656 550.091 607.398 551.423C606.165 552.73 605.548 554.543 605.548 556.862C605.548 559.181 606.165 561.006 607.398 562.338C608.656 563.645 610.321 564.299 612.393 564.299C613.725 564.299 614.909 563.991 615.945 563.374C617.006 562.757 617.832 561.894 618.424 560.784C619.016 559.649 619.312 558.342 619.312 556.862C619.312 555.382 619.016 554.075 618.424 552.94C617.832 551.805 617.006 550.942 615.945 550.35C614.909 549.733 613.725 549.425 612.393 549.425ZM80.914 598.428C82.8627 598.428 84.6017 598.847 86.131 599.686C87.685 600.525 88.8937 601.733 89.757 603.312C90.645 604.891 91.089 606.741 91.089 608.862C91.089 610.983 90.645 612.833 89.757 614.412C88.8937 615.966 87.685 617.162 86.131 618.001C84.6017 618.84 82.8627 619.259 80.914 619.259C78.9653 619.259 77.214 618.84 75.66 618.001C74.1307 617.162 72.922 615.966 72.034 614.412C71.146 612.833 70.702 610.983 70.702 608.862C70.702 606.741 71.146 604.891 72.034 603.312C72.922 601.733 74.1307 600.525 75.66 599.686C77.214 598.847 78.9653 598.428 80.914 598.428ZM80.914 601.388C79.7053 601.388 78.583 601.659 77.547 602.202C76.5357 602.745 75.7093 603.583 75.068 604.718C74.4513 605.828 74.143 607.209 74.143 608.862C74.143 610.49 74.4513 611.871 75.068 613.006C75.7093 614.116 76.5357 614.942 77.547 615.485C78.583 616.028 79.7053 616.299 80.914 616.299C82.1227 616.299 83.2327 616.028 84.244 615.485C85.28 614.942 86.1063 614.116 86.723 613.006C87.3643 611.871 87.685 610.49 87.685 608.862C87.685 607.209 87.3643 605.828 86.723 604.718C86.1063 603.583 85.28 602.745 84.244 602.202C83.2327 601.659 82.1227 601.388 80.914 601.388ZM106.169 598.354C108.537 598.354 110.449 599.119 111.904 600.648C113.36 602.153 114.087 604.336 114.087 607.197V619H110.72V607.493C110.72 605.47 110.202 603.916 109.166 602.831C108.13 601.746 106.724 601.203 104.948 601.203C103.098 601.203 101.618 601.807 100.508 603.016C99.3984 604.2 98.8434 605.939 98.8434 608.233V619H95.4764V598.687H98.8434V603.497C99.3614 601.844 100.274 600.574 101.581 599.686C102.913 598.798 104.443 598.354 106.169 598.354ZM136.718 598.428C138.692 598.428 140.357 598.921 141.713 599.908C143.095 600.895 144.057 602.214 144.599 603.867V598.687H147.966V619H144.599V613.82C144.057 615.473 143.095 616.792 141.713 617.779C140.357 618.766 138.692 619.259 136.718 619.259C134.918 619.259 133.314 618.84 131.908 618.001C130.502 617.162 129.392 615.966 128.578 614.412C127.789 612.833 127.394 610.983 127.394 608.862C127.394 606.741 127.789 604.891 128.578 603.312C129.392 601.733 130.502 600.525 131.908 599.686C133.314 598.847 134.918 598.428 136.718 598.428ZM137.68 601.425C135.608 601.425 133.943 602.091 132.685 603.423C131.452 604.73 130.835 606.543 130.835 608.862C130.835 611.181 131.452 613.006 132.685 614.338C133.943 615.645 135.608 616.299 137.68 616.299C139.012 616.299 140.196 615.991 141.232 615.374C142.293 614.757 143.119 613.894 143.711 612.784C144.303 611.649 144.599 610.342 144.599 608.862C144.599 607.382 144.303 606.075 143.711 604.94C143.119 603.805 142.293 602.942 141.232 602.35C140.196 601.733 139.012 601.425 137.68 601.425ZM173.678 598.428C175.478 598.428 177.082 598.847 178.488 599.686C179.894 600.525 180.991 601.733 181.781 603.312C182.595 604.891 183.002 606.741 183.002 608.862C183.002 610.983 182.595 612.833 181.781 614.412C180.991 615.966 179.894 617.162 178.488 618.001C177.082 618.84 175.478 619.259 173.678 619.259C171.704 619.259 170.027 618.766 168.646 617.779C167.289 616.768 166.352 615.448 165.834 613.82V619H162.467V591.62H165.834V603.867C166.352 602.239 167.289 600.932 168.646 599.945C170.027 598.934 171.704 598.428 173.678 598.428ZM172.716 601.425C171.408 601.425 170.224 601.733 169.164 602.35C168.103 602.942 167.277 603.805 166.685 604.94C166.093 606.075 165.797 607.382 165.797 608.862C165.797 610.342 166.093 611.649 166.685 612.784C167.277 613.894 168.103 614.757 169.164 615.374C170.224 615.991 171.408 616.299 172.716 616.299C174.812 616.299 176.477 615.645 177.711 614.338C178.969 613.006 179.598 611.181 179.598 608.862C179.598 606.543 178.969 604.73 177.711 603.423C176.477 602.091 174.812 601.425 172.716 601.425ZM190.765 602.794C191.431 601.388 192.406 600.303 193.688 599.538C194.971 598.749 196.5 598.354 198.276 598.354V602.017H197.24C195.341 602.017 193.787 602.51 192.578 603.497C191.37 604.459 190.765 606.062 190.765 608.307V619H187.398V598.687H190.765V602.794ZM209.923 598.428C211.897 598.428 213.562 598.921 214.918 599.908C216.3 600.895 217.262 602.214 217.804 603.867V598.687H221.171V619H217.804V613.82C217.262 615.473 216.3 616.792 214.918 617.779C213.562 618.766 211.897 619.259 209.923 619.259C208.123 619.259 206.519 618.84 205.113 618.001C203.707 617.162 202.597 615.966 201.783 614.412C200.994 612.833 200.599 610.983 200.599 608.862C200.599 606.741 200.994 604.891 201.783 603.312C202.597 601.733 203.707 600.525 205.113 599.686C206.519 598.847 208.123 598.428 209.923 598.428ZM210.885 601.425C208.813 601.425 207.148 602.091 205.89 603.423C204.657 604.73 204.04 606.543 204.04 608.862C204.04 611.181 204.657 613.006 205.89 614.338C207.148 615.645 208.813 616.299 210.885 616.299C212.217 616.299 213.401 615.991 214.437 615.374C215.498 614.757 216.324 613.894 216.916 612.784C217.508 611.649 217.804 610.342 217.804 608.862C217.804 607.382 217.508 606.075 216.916 604.94C216.324 603.805 215.498 602.942 214.437 602.35C213.401 601.733 212.217 601.425 210.885 601.425ZM237.223 598.354C239.591 598.354 241.503 599.119 242.958 600.648C244.413 602.153 245.141 604.336 245.141 607.197V619H241.774V607.493C241.774 605.47 241.256 603.916 240.22 602.831C239.184 601.746 237.778 601.203 236.002 601.203C234.152 601.203 232.672 601.807 231.562 603.016C230.452 604.2 229.897 605.939 229.897 608.233V619H226.53V598.687H229.897V603.497C230.415 601.844 231.328 600.574 232.635 599.686C233.967 598.798 235.496 598.354 237.223 598.354ZM258.63 598.428C260.604 598.428 262.269 598.921 263.625 599.908C265.007 600.895 265.969 602.214 266.511 603.867V591.62H269.878V619H266.511V613.82C265.969 615.473 265.007 616.792 263.625 617.779C262.269 618.766 260.604 619.259 258.63 619.259C256.83 619.259 255.226 618.84 253.82 618.001C252.414 617.162 251.304 615.966 250.49 614.412C249.701 612.833 249.306 610.983 249.306 608.862C249.306 606.741 249.701 604.891 250.49 603.312C251.304 601.733 252.414 600.525 253.82 599.686C255.226 598.847 256.83 598.428 258.63 598.428ZM259.592 601.425C257.52 601.425 255.855 602.091 254.597 603.423C253.364 604.73 252.747 606.543 252.747 608.862C252.747 611.181 253.364 613.006 254.597 614.338C255.855 615.645 257.52 616.299 259.592 616.299C260.924 616.299 262.108 615.991 263.144 615.374C264.205 614.757 265.031 613.894 265.623 612.784C266.215 611.649 266.511 610.342 266.511 608.862C266.511 607.382 266.215 606.075 265.623 604.94C265.031 603.805 264.205 602.942 263.144 602.35C262.108 601.733 260.924 601.425 259.592 601.425ZM295.072 598.354C297.44 598.354 299.351 599.119 300.807 600.648C302.262 602.153 302.99 604.336 302.99 607.197V619H299.623V607.493C299.623 605.47 299.105 603.916 298.069 602.831C297.033 601.746 295.627 601.203 293.851 601.203C292.001 601.203 290.521 601.807 289.411 603.016C288.301 604.2 287.746 605.939 287.746 608.233V619H284.379V598.687H287.746V603.497C288.264 601.844 289.176 600.574 290.484 599.686C291.816 598.798 293.345 598.354 295.072 598.354ZM326.839 607.715C326.839 608.43 326.79 609.047 326.691 609.565H310.448C310.522 611.884 311.176 613.623 312.409 614.782C313.667 615.941 315.196 616.521 316.997 616.521C318.625 616.521 319.982 616.114 321.067 615.3C322.177 614.461 322.855 613.351 323.102 611.97H326.691C326.444 613.376 325.889 614.634 325.026 615.744C324.187 616.854 323.09 617.717 321.733 618.334C320.376 618.951 318.847 619.259 317.145 619.259C315.196 619.259 313.47 618.84 311.965 618.001C310.46 617.162 309.276 615.966 308.413 614.412C307.574 612.833 307.155 610.983 307.155 608.862C307.155 606.741 307.574 604.891 308.413 603.312C309.276 601.733 310.46 600.525 311.965 599.686C313.47 598.847 315.196 598.428 317.145 598.428C319.118 598.428 320.833 598.847 322.288 599.686C323.768 600.525 324.89 601.647 325.655 603.053C326.444 604.459 326.839 606.013 326.839 607.715ZM323.435 607.937C323.509 606.432 323.262 605.174 322.695 604.163C322.128 603.152 321.351 602.399 320.364 601.906C319.377 601.413 318.304 601.166 317.145 601.166C315.295 601.166 313.741 601.746 312.483 602.905C311.225 604.04 310.547 605.717 310.448 607.937H323.435ZM359.141 598.687L353.295 619H349.669L344.082 602.461L338.458 619H334.795L329.023 598.687H332.427L336.756 615.781L342.38 598.687H345.895L351.556 615.744L355.922 598.687H359.141ZM399.321 598.687L393.475 619H389.849L384.262 602.461L378.638 619H374.975L369.203 598.687H372.607L376.936 615.781L382.56 598.687H386.075L391.736 615.744L396.102 598.687H399.321ZM421.146 607.715C421.146 608.43 421.096 609.047 420.998 609.565H404.755C404.829 611.884 405.482 613.623 406.716 614.782C407.974 615.941 409.503 616.521 411.304 616.521C412.932 616.521 414.288 616.114 415.374 615.3C416.484 614.461 417.162 613.351 417.409 611.97H420.998C420.751 613.376 420.196 614.634 419.333 615.744C418.494 616.854 417.396 617.717 416.04 618.334C414.683 618.951 413.154 619.259 411.452 619.259C409.503 619.259 407.776 618.84 406.272 618.001C404.767 617.162 403.583 615.966 402.72 614.412C401.881 612.833 401.462 610.983 401.462 608.862C401.462 606.741 401.881 604.891 402.72 603.312C403.583 601.733 404.767 600.525 406.272 599.686C407.776 598.847 409.503 598.428 411.452 598.428C413.425 598.428 415.139 598.847 416.595 599.686C418.075 600.525 419.197 601.647 419.962 603.053C420.751 604.459 421.146 606.013 421.146 607.715ZM417.742 607.937C417.816 606.432 417.569 605.174 417.002 604.163C416.434 603.152 415.657 602.399 414.671 601.906C413.684 601.413 412.611 601.166 411.452 601.166C409.602 601.166 408.048 601.746 406.79 602.905C405.532 604.04 404.853 605.717 404.755 607.937H417.742ZM436.761 598.428C438.561 598.428 440.165 598.847 441.571 599.686C442.977 600.525 444.074 601.733 444.864 603.312C445.678 604.891 446.085 606.741 446.085 608.862C446.085 610.983 445.678 612.833 444.864 614.412C444.074 615.966 442.977 617.162 441.571 618.001C440.165 618.84 438.561 619.259 436.761 619.259C434.787 619.259 433.11 618.766 431.729 617.779C430.372 616.768 429.435 615.448 428.917 613.82V619H425.55V591.62H428.917V603.867C429.435 602.239 430.372 600.932 431.729 599.945C433.11 598.934 434.787 598.428 436.761 598.428ZM435.799 601.425C434.491 601.425 433.307 601.733 432.247 602.35C431.186 602.942 430.36 603.805 429.768 604.94C429.176 606.075 428.88 607.382 428.88 608.862C428.88 610.342 429.176 611.649 429.768 612.784C430.36 613.894 431.186 614.757 432.247 615.374C433.307 615.991 434.491 616.299 435.799 616.299C437.895 616.299 439.56 615.645 440.794 614.338C442.052 613.006 442.681 611.181 442.681 608.862C442.681 606.543 442.052 604.73 440.794 603.423C439.56 602.091 437.895 601.425 435.799 601.425ZM456.845 598.428C459.139 598.428 460.977 599.032 462.358 600.241C463.764 601.425 464.615 603.028 464.911 605.051H461.692C461.544 603.842 461.039 602.856 460.175 602.091C459.337 601.302 458.202 600.907 456.771 600.907C455.563 600.907 454.613 601.203 453.922 601.795C453.256 602.362 452.923 603.139 452.923 604.126C452.923 604.866 453.145 605.47 453.589 605.939C454.058 606.383 454.625 606.728 455.291 606.975C455.982 607.197 456.919 607.444 458.103 607.715C459.608 608.06 460.817 608.418 461.729 608.788C462.667 609.133 463.456 609.701 464.097 610.49C464.763 611.279 465.096 612.34 465.096 613.672C465.096 615.325 464.467 616.669 463.209 617.705C461.976 618.741 460.323 619.259 458.251 619.259C455.834 619.259 453.861 618.679 452.331 617.52C450.802 616.361 449.902 614.745 449.63 612.673H452.886C453.01 613.906 453.54 614.905 454.477 615.67C455.439 616.435 456.697 616.817 458.251 616.817C459.411 616.817 460.311 616.521 460.952 615.929C461.618 615.337 461.951 614.56 461.951 613.598C461.951 612.809 461.717 612.18 461.248 611.711C460.78 611.242 460.2 610.885 459.509 610.638C458.819 610.391 457.869 610.132 456.66 609.861C455.156 609.516 453.947 609.17 453.034 608.825C452.146 608.48 451.382 607.937 450.74 607.197C450.124 606.432 449.815 605.409 449.815 604.126C449.815 602.424 450.444 601.055 451.702 600.019C452.96 598.958 454.675 598.428 456.845 598.428ZM469.004 592.73C469.004 592.113 469.213 591.62 469.633 591.25C470.052 590.855 470.607 590.658 471.298 590.658C471.988 590.658 472.543 590.855 472.963 591.25C473.382 591.62 473.592 592.113 473.592 592.73C473.592 593.347 473.382 593.852 472.963 594.247C472.543 594.617 471.988 594.802 471.298 594.802C470.607 594.802 470.052 594.617 469.633 594.247C469.213 593.852 469.004 593.347 469.004 592.73ZM472.963 598.687V619H469.596V598.687H472.963ZM488.07 616.04V619H485.554C483.482 619 481.928 618.507 480.892 617.52C479.88 616.533 479.375 614.881 479.375 612.562V601.61H476.341V598.687H479.375V593.618H482.779V598.687H488.033V601.61H482.779V612.636C482.779 613.943 483.013 614.844 483.482 615.337C483.975 615.806 484.814 616.04 485.998 616.04H488.07ZM510.864 607.715C510.864 608.43 510.814 609.047 510.716 609.565H494.473C494.547 611.884 495.2 613.623 496.434 614.782C497.692 615.941 499.221 616.521 501.022 616.521C502.65 616.521 504.006 616.114 505.092 615.3C506.202 614.461 506.88 613.351 507.127 611.97H510.716C510.469 613.376 509.914 614.634 509.051 615.744C508.212 616.854 507.114 617.717 505.758 618.334C504.401 618.951 502.872 619.259 501.17 619.259C499.221 619.259 497.494 618.84 495.99 618.001C494.485 617.162 493.301 615.966 492.438 614.412C491.599 612.833 491.18 610.983 491.18 608.862C491.18 606.741 491.599 604.891 492.438 603.312C493.301 601.733 494.485 600.525 495.99 599.686C497.494 598.847 499.221 598.428 501.17 598.428C503.143 598.428 504.857 598.847 506.313 599.686C507.793 600.525 508.915 601.647 509.68 603.053C510.469 604.459 510.864 606.013 510.864 607.715ZM507.46 607.937C507.534 606.432 507.287 605.174 506.72 604.163C506.152 603.152 505.375 602.399 504.389 601.906C503.402 601.413 502.329 601.166 501.17 601.166C499.32 601.166 497.766 601.746 496.508 602.905C495.25 604.04 494.571 605.717 494.473 607.937H507.46Z" fill="#FDF3D8"/>
<path d="M111.784 361.032C121.864 361.032 130.189 363.683 136.76 368.984C143.405 374.285 147.699 381.453 149.64 390.488H129.368C127.875 386.829 125.56 383.955 122.424 381.864C119.363 379.773 115.704 378.728 111.448 378.728C105.848 378.728 101.331 380.781 97.896 384.888C94.4613 388.995 92.744 394.483 92.744 401.352C92.744 408.221 94.4613 413.709 97.896 417.816C101.331 421.848 105.848 423.864 111.448 423.864C115.704 423.864 119.363 422.819 122.424 420.728C125.56 418.637 127.875 415.8 129.368 412.216H149.64C147.699 421.176 143.405 428.344 136.76 433.72C130.189 439.021 121.864 441.672 111.784 441.672C104.093 441.672 97.336 439.992 91.512 436.632C85.688 433.197 81.1707 428.419 77.96 422.296C74.824 416.173 73.256 409.192 73.256 401.352C73.256 393.512 74.824 386.531 77.96 380.408C81.1707 374.285 85.688 369.544 91.512 366.184C97.336 362.749 104.093 361.032 111.784 361.032ZM189.606 377.72C195.803 377.72 201.328 379.027 206.182 381.64C211.11 384.179 214.955 387.875 217.718 392.728C220.555 397.581 221.974 403.256 221.974 409.752C221.974 416.248 220.555 421.923 217.718 426.776C214.955 431.629 211.11 435.363 206.182 437.976C201.328 440.515 195.803 441.784 189.606 441.784C183.408 441.784 177.846 440.515 172.918 437.976C167.99 435.363 164.107 431.629 161.27 426.776C158.507 421.923 157.126 416.248 157.126 409.752C157.126 403.256 158.507 397.581 161.27 392.728C164.107 387.875 167.99 384.179 172.918 381.64C177.846 379.027 183.408 377.72 189.606 377.72ZM189.606 394.296C185.947 394.296 182.848 395.64 180.31 398.328C177.846 400.941 176.614 404.749 176.614 409.752C176.614 414.755 177.846 418.563 180.31 421.176C182.848 423.789 185.947 425.096 189.606 425.096C193.264 425.096 196.326 423.789 198.79 421.176C201.254 418.563 202.486 414.755 202.486 409.752C202.486 404.749 201.254 400.941 198.79 398.328C196.326 395.64 193.264 394.296 189.606 394.296ZM312.881 377.832C320.572 377.832 326.62 380.221 331.025 385C335.43 389.704 337.633 396.275 337.633 404.712V441H318.593V406.952C318.593 402.995 317.51 399.933 315.345 397.768C313.254 395.528 310.38 394.408 306.721 394.408C302.913 394.408 299.889 395.603 297.649 397.992C295.484 400.307 294.401 403.592 294.401 407.848V441H275.249V406.952C275.249 402.995 274.204 399.933 272.113 397.768C270.022 395.528 267.148 394.408 263.489 394.408C259.681 394.408 256.657 395.565 254.417 397.88C252.177 400.195 251.057 403.517 251.057 407.848V441H231.905V378.504H251.057V389.144C252.7 385.635 255.201 382.872 258.561 380.856C261.996 378.84 265.99 377.832 270.545 377.832C275.324 377.832 279.542 378.952 283.201 381.192C286.86 383.357 289.622 386.493 291.489 390.6C293.654 386.717 296.604 383.619 300.337 381.304C304.145 378.989 308.326 377.832 312.881 377.832ZM348.566 360.92C348.566 358.008 349.611 355.619 351.702 353.752C353.793 351.811 356.555 350.84 359.99 350.84C363.425 350.84 366.187 351.811 368.278 353.752C370.369 355.619 371.414 358.008 371.414 360.92C371.414 363.757 370.369 366.147 368.278 368.088C366.187 369.955 363.425 370.888 359.99 370.888C356.555 370.888 353.793 369.955 351.702 368.088C349.611 366.147 348.566 363.757 348.566 360.92ZM369.51 378.504V441H350.358V378.504H369.51ZM422.381 377.832C429.549 377.832 435.224 380.221 439.405 385C443.661 389.779 445.789 396.349 445.789 404.712V441H426.637V406.952C426.637 402.771 425.517 399.523 423.277 397.208C421.112 394.819 418.2 393.624 414.541 393.624C410.658 393.624 407.56 394.856 405.245 397.32C403.005 399.784 401.885 403.293 401.885 407.848V441H382.733V378.504H401.885V389.928C403.677 386.195 406.328 383.245 409.837 381.08C413.421 378.915 417.602 377.832 422.381 377.832ZM482.165 377.72C486.943 377.72 491.05 378.803 494.485 380.968C497.919 383.133 500.458 386.083 502.101 389.816V378.504H521.141V440.664C521.141 446.488 520.021 451.715 517.781 456.344C515.541 461.048 512.106 464.781 507.477 467.544C502.847 470.307 497.098 471.688 490.229 471.688C480.821 471.688 473.279 469.448 467.605 464.968C462.005 460.563 458.645 454.552 457.525 446.936H476.453C477.05 449.475 478.394 451.453 480.485 452.872C482.65 454.291 485.45 455 488.885 455C492.842 455 496.015 453.843 498.405 451.528C500.869 449.288 502.101 445.667 502.101 440.664V429.688C500.458 433.421 497.919 436.371 494.485 438.536C491.05 440.701 486.943 441.784 482.165 441.784C477.013 441.784 472.383 440.515 468.276 437.976C464.245 435.363 461.034 431.629 458.645 426.776C456.33 421.923 455.173 416.248 455.173 409.752C455.173 403.181 456.33 397.507 458.645 392.728C461.034 387.875 464.245 384.179 468.276 381.64C472.383 379.027 477.013 377.72 482.165 377.72ZM488.325 394.52C484.218 394.52 480.895 395.864 478.357 398.552C475.893 401.24 474.661 404.973 474.661 409.752C474.661 414.531 475.893 418.264 478.357 420.952C480.895 423.64 484.218 424.984 488.325 424.984C492.357 424.984 495.642 423.603 498.181 420.84C500.794 418.077 502.101 414.381 502.101 409.752C502.101 405.048 500.794 401.352 498.181 398.664C495.642 395.901 492.357 394.52 488.325 394.52ZM579.485 377.72C587.399 377.72 593.709 379.699 598.413 383.656C603.191 387.613 606.178 392.84 607.373 399.336H589.453C588.93 396.797 587.735 394.819 585.869 393.4C584.077 391.907 581.799 391.16 579.037 391.16C576.871 391.16 575.229 391.645 574.109 392.616C572.989 393.512 572.429 394.819 572.429 396.536C572.429 398.477 573.437 399.933 575.453 400.904C577.543 401.875 580.791 402.845 585.197 403.816C589.975 404.936 593.895 406.093 596.957 407.288C600.018 408.408 602.669 410.275 604.909 412.888C607.149 415.501 608.269 419.011 608.269 423.416C608.269 427 607.298 430.173 605.357 432.936C603.415 435.699 600.615 437.864 596.957 439.432C593.298 441 588.967 441.784 583.965 441.784C575.527 441.784 568.77 439.917 563.693 436.184C558.615 432.451 555.517 427.112 554.397 420.168H572.877C573.175 422.856 574.295 424.909 576.237 426.328C578.253 427.747 580.829 428.456 583.965 428.456C586.13 428.456 587.773 427.971 588.893 427C590.013 425.955 590.573 424.611 590.573 422.968C590.573 420.803 589.527 419.272 587.437 418.376C585.421 417.405 582.098 416.397 577.469 415.352C572.839 414.381 569.031 413.336 566.045 412.216C563.058 411.096 560.482 409.304 558.317 406.84C556.151 404.301 555.069 400.867 555.069 396.536C555.069 390.936 557.197 386.419 561.453 382.984C565.709 379.475 571.719 377.72 579.485 377.72ZM648.106 377.72C654.303 377.72 659.828 379.027 664.682 381.64C669.61 384.179 673.455 387.875 676.218 392.728C679.055 397.581 680.474 403.256 680.474 409.752C680.474 416.248 679.055 421.923 676.218 426.776C673.455 431.629 669.61 435.363 664.682 437.976C659.828 440.515 654.303 441.784 648.106 441.784C641.908 441.784 636.346 440.515 631.418 437.976C626.49 435.363 622.607 431.629 619.77 426.776C617.007 421.923 615.626 416.248 615.626 409.752C615.626 403.256 617.007 397.581 619.77 392.728C622.607 387.875 626.49 384.179 631.418 381.64C636.346 379.027 641.908 377.72 648.106 377.72ZM648.106 394.296C644.447 394.296 641.348 395.64 638.81 398.328C636.346 400.941 635.114 404.749 635.114 409.752C635.114 414.755 636.346 418.563 638.81 421.176C641.348 423.789 644.447 425.096 648.106 425.096C651.764 425.096 654.826 423.789 657.29 421.176C659.754 418.563 660.986 414.755 660.986 409.752C660.986 404.749 659.754 400.941 657.29 398.328C654.826 395.64 651.764 394.296 648.106 394.296ZM719.637 377.72C725.834 377.72 731.36 379.027 736.213 381.64C741.141 384.179 744.986 387.875 747.749 392.728C750.586 397.581 752.005 403.256 752.005 409.752C752.005 416.248 750.586 421.923 747.749 426.776C744.986 431.629 741.141 435.363 736.213 437.976C731.36 440.515 725.834 441.784 719.637 441.784C713.44 441.784 707.877 440.515 702.949 437.976C698.021 435.363 694.138 431.629 691.301 426.776C688.538 421.923 687.157 416.248 687.157 409.752C687.157 403.256 688.538 397.581 691.301 392.728C694.138 387.875 698.021 384.179 702.949 381.64C707.877 379.027 713.44 377.72 719.637 377.72ZM719.637 394.296C715.978 394.296 712.88 395.64 710.341 398.328C707.877 400.941 706.645 404.749 706.645 409.752C706.645 414.755 707.877 418.563 710.341 421.176C712.88 423.789 715.978 425.096 719.637 425.096C723.296 425.096 726.357 423.789 728.821 421.176C731.285 418.563 732.517 414.755 732.517 409.752C732.517 404.749 731.285 400.941 728.821 398.328C726.357 395.64 723.296 394.296 719.637 394.296ZM801.584 377.832C808.752 377.832 814.427 380.221 818.608 385C822.864 389.779 824.992 396.349 824.992 404.712V441H805.84V406.952C805.84 402.771 804.72 399.523 802.48 397.208C800.315 394.819 797.403 393.624 793.744 393.624C789.861 393.624 786.763 394.856 784.448 397.32C782.208 399.784 781.088 403.293 781.088 407.848V441H761.936V378.504H781.088V389.928C782.88 386.195 785.531 383.245 789.04 381.08C792.624 378.915 796.805 377.832 801.584 377.832ZM863.832 357.896L861.48 412.664H845.24L842.888 357.896H863.832ZM863.384 421.848V441H843.448V421.848H863.384Z" fill="#FDF3D8"/>
<path d="M1861.36 706.85C1711.19 633.705 1564.56 520.443 1458.19 377.266C1348.49 229.614 1283.47 65.4431 1257.48 -104.124C1282.03 -108.471 1306.58 -112.819 1334.47 -118.266L1592.2 -163.914C1607.26 -44.5629 1654.67 71.5914 1731.12 174.5C1807.57 277.409 1905.32 354.775 2014.35 404.322L1861.36 706.85Z" fill="#FDF3D8"/>
<mask id="mask1_2925:18754" style="mask-type:alpha" maskUnits="userSpaceOnUse" x="624" y="-77" width="1175" height="1188">
<path d="M1376.52 439.325C1489.54 591.451 1639.47 714.76 1798.53 792.405C1510.14 1208.03 928.185 1215.41 624.523 821.621C842.385 716.707 925.223 641.278 943.086 390.531C971.454 36.1554 1062.07 -32.5495 1157.02 -76.7092C1187.41 106.255 1257.95 281.599 1376.52 439.325Z" fill="#FEE19D"/>
</mask>
<g mask="url(#mask1_2925:18754)">
<path d="M1376.52 439.325C1489.54 591.451 1639.47 714.76 1798.53 792.405C1510.14 1208.03 928.185 1215.41 624.523 821.621C842.385 716.707 925.223 641.278 943.086 390.531C971.454 36.1554 1062.07 -32.5495 1157.02 -76.7092C1187.41 106.255 1257.95 281.599 1376.52 439.325Z" fill="#FEE19D"/>
<path d="M1447.56 -225.883C1809.32 -350.208 1840.3 -52.4174 1915.55 69.4376C2469.61 802.149 2286.79 1290.71 1266.46 1109.93C1429.32 843.122 1253.15 605.984 1215.41 570.139C895.769 257.657 1120.04 -31.1694 1180.56 -101.126C1321.51 -208.62 1434.17 -221.485 1447.56 -225.883Z" fill="#F4C53D"/>
<path d="M826.722 979.735C728.474 1256.87 400.234 1364.63 156.845 1199.65C-7.63889 1088.53 -80.2347 873.047 -12.4861 683.84C85.7621 406.703 414.002 298.947 657.391 463.929C822.975 578.392 893.346 792.753 826.722 979.735Z" fill="#50514F"/>
</g>
</g>
<defs>
<clipPath id="clip0_2925:18754">
<rect width="1440" height="1024" fill="white"/>
</clipPath>
</defs>
</svg>
