<svg width="1440" height="1024" viewBox="0 0 1440 1024" fill="none" xmlns="http://www.w3.org/2000/svg">
<g clip-path="url(#clip0_2925:18754)">
<path d="M-4.00038 1026.15C-4.00023 925 75.6838 456.067 752.4 462.464C831.179 464.345 1256.58 460.179 1367 -0.00156637L1445 -0.00124913L1445 1026.15L-4.00038 1026.15Z" fill="url(#paint0_radial_2925:18754)"/>
<g filter="url(#filter0_dd_2925:18754)">
<path d="M360 288C360 270.327 374.327 256 392 256H1072C1076.42 256 1080 259.582 1080 264V737C1080 754.673 1065.67 769 1048 769H368C363.582 769 360 765.418 360 761V288Z" fill="#FEF9EC"/>
</g>
<path d="M483.92 670.31L480.698 683H478.7L475.766 672.632L472.832 683H470.834L467.594 670.31H469.412L471.842 681.092L474.848 670.31H476.666L479.672 681.056L482.12 670.31H483.92ZM494.929 677.51C494.929 677.858 494.905 678.158 494.857 678.41H486.955C486.991 679.538 487.309 680.384 487.909 680.948C488.521 681.512 489.265 681.794 490.141 681.794C490.933 681.794 491.593 681.596 492.121 681.2C492.661 680.792 492.991 680.252 493.111 679.58H494.857C494.737 680.264 494.467 680.876 494.047 681.416C493.639 681.956 493.105 682.376 492.445 682.676C491.785 682.976 491.041 683.126 490.213 683.126C489.265 683.126 488.425 682.922 487.693 682.514C486.961 682.106 486.385 681.524 485.965 680.768C485.557 680 485.353 679.1 485.353 678.068C485.353 677.036 485.557 676.136 485.965 675.368C486.385 674.6 486.961 674.012 487.693 673.604C488.425 673.196 489.265 672.992 490.213 672.992C491.173 672.992 492.007 673.196 492.715 673.604C493.435 674.012 493.981 674.558 494.353 675.242C494.737 675.926 494.929 676.682 494.929 677.51ZM493.273 677.618C493.309 676.886 493.189 676.274 492.913 675.782C492.637 675.29 492.259 674.924 491.779 674.684C491.299 674.444 490.777 674.324 490.213 674.324C489.313 674.324 488.557 674.606 487.945 675.17C487.333 675.722 487.003 676.538 486.955 677.618H493.273ZM505.569 672.992C506.529 672.992 507.339 673.232 507.999 673.712C508.671 674.192 509.139 674.834 509.403 675.638V673.118H511.041V683H509.403V680.48C509.139 681.284 508.671 681.926 507.999 682.406C507.339 682.886 506.529 683.126 505.569 683.126C504.693 683.126 503.913 682.922 503.229 682.514C502.545 682.106 502.005 681.524 501.609 680.768C501.225 680 501.033 679.1 501.033 678.068C501.033 677.036 501.225 676.136 501.609 675.368C502.005 674.6 502.545 674.012 503.229 673.604C503.913 673.196 504.693 672.992 505.569 672.992ZM506.037 674.45C505.029 674.45 504.219 674.774 503.607 675.422C503.007 676.058 502.707 676.94 502.707 678.068C502.707 679.196 503.007 680.084 503.607 680.732C504.219 681.368 505.029 681.686 506.037 681.686C506.685 681.686 507.261 681.536 507.765 681.236C508.281 680.936 508.683 680.516 508.971 679.976C509.259 679.424 509.403 678.788 509.403 678.068C509.403 677.348 509.259 676.712 508.971 676.16C508.683 675.608 508.281 675.188 507.765 674.9C507.261 674.6 506.685 674.45 506.037 674.45ZM515.286 675.116C515.61 674.432 516.084 673.904 516.708 673.532C517.332 673.148 518.076 672.956 518.94 672.956V674.738H518.436C517.512 674.738 516.756 674.978 516.168 675.458C515.58 675.926 515.286 676.706 515.286 677.798V683H513.648V673.118H515.286V675.116ZM529.646 677.51C529.646 677.858 529.622 678.158 529.574 678.41H521.672C521.708 679.538 522.026 680.384 522.626 680.948C523.238 681.512 523.982 681.794 524.858 681.794C525.65 681.794 526.31 681.596 526.838 681.2C527.378 680.792 527.708 680.252 527.828 679.58H529.574C529.454 680.264 529.184 680.876 528.764 681.416C528.356 681.956 527.822 682.376 527.162 682.676C526.502 682.976 525.758 683.126 524.93 683.126C523.982 683.126 523.142 682.922 522.41 682.514C521.678 682.106 521.102 681.524 520.682 680.768C520.274 680 520.07 679.1 520.07 678.068C520.07 677.036 520.274 676.136 520.682 675.368C521.102 674.6 521.678 674.012 522.41 673.604C523.142 673.196 523.982 672.992 524.93 672.992C525.89 672.992 526.724 673.196 527.432 673.604C528.152 674.012 528.698 674.558 529.07 675.242C529.454 675.926 529.646 676.682 529.646 677.51ZM527.99 677.618C528.026 676.886 527.906 676.274 527.63 675.782C527.354 675.29 526.976 674.924 526.496 674.684C526.016 674.444 525.494 674.324 524.93 674.324C524.03 674.324 523.274 674.606 522.662 675.17C522.05 675.722 521.72 676.538 521.672 677.618H527.99ZM540.61 672.992C541.87 672.992 542.914 673.328 543.742 674C544.57 674.672 545.08 675.572 545.272 676.7H543.544C543.424 675.992 543.094 675.44 542.554 675.044C542.026 674.636 541.366 674.432 540.574 674.432C539.998 674.432 539.47 674.564 538.99 674.828C538.522 675.092 538.144 675.5 537.856 676.052C537.568 676.592 537.424 677.264 537.424 678.068C537.424 678.872 537.568 679.55 537.856 680.102C538.144 680.642 538.522 681.044 538.99 681.308C539.47 681.572 539.998 681.704 540.574 681.704C541.366 681.704 542.026 681.5 542.554 681.092C543.094 680.684 543.424 680.126 543.544 679.418H545.272C545.08 680.558 544.57 681.464 543.742 682.136C542.914 682.796 541.87 683.126 540.61 683.126C539.662 683.126 538.822 682.922 538.09 682.514C537.358 682.106 536.782 681.524 536.362 680.768C535.954 680 535.75 679.1 535.75 678.068C535.75 677.036 535.954 676.136 536.362 675.368C536.782 674.6 537.358 674.012 538.09 673.604C538.822 673.196 539.662 672.992 540.61 672.992ZM556.2 673.118V683H554.562V680.678C554.31 681.482 553.86 682.1 553.212 682.532C552.576 682.952 551.832 683.162 550.98 683.162C549.84 683.162 548.916 682.796 548.208 682.064C547.5 681.32 547.146 680.258 547.146 678.878V673.118H548.784V678.716C548.784 679.7 549.036 680.462 549.54 681.002C550.044 681.53 550.728 681.794 551.592 681.794C552.492 681.794 553.212 681.506 553.752 680.93C554.292 680.342 554.562 679.49 554.562 678.374V673.118H556.2ZM560.462 675.116C560.786 674.432 561.26 673.904 561.884 673.532C562.508 673.148 563.252 672.956 564.116 672.956V674.738H563.612C562.688 674.738 561.932 674.978 561.344 675.458C560.756 675.926 560.462 676.706 560.462 677.798V683H558.824V673.118H560.462V675.116ZM567.37 675.116C567.694 674.432 568.168 673.904 568.792 673.532C569.416 673.148 570.16 672.956 571.024 672.956V674.738H570.52C569.596 674.738 568.84 674.978 568.252 675.458C567.664 675.926 567.37 676.706 567.37 677.798V683H565.732V673.118H567.37V675.116ZM581.73 677.51C581.73 677.858 581.706 678.158 581.658 678.41H573.756C573.792 679.538 574.11 680.384 574.71 680.948C575.322 681.512 576.066 681.794 576.942 681.794C577.734 681.794 578.394 681.596 578.922 681.2C579.462 680.792 579.792 680.252 579.912 679.58H581.658C581.538 680.264 581.268 680.876 580.848 681.416C580.44 681.956 579.906 682.376 579.246 682.676C578.586 682.976 577.842 683.126 577.014 683.126C576.066 683.126 575.226 682.922 574.494 682.514C573.762 682.106 573.186 681.524 572.766 680.768C572.358 680 572.154 679.1 572.154 678.068C572.154 677.036 572.358 676.136 572.766 675.368C573.186 674.6 573.762 674.012 574.494 673.604C575.226 673.196 576.066 672.992 577.014 672.992C577.974 672.992 578.808 673.196 579.516 673.604C580.236 674.012 580.782 674.558 581.154 675.242C581.538 675.926 581.73 676.682 581.73 677.51ZM580.074 677.618C580.11 676.886 579.99 676.274 579.714 675.782C579.438 675.29 579.06 674.924 578.58 674.684C578.1 674.444 577.578 674.324 577.014 674.324C576.114 674.324 575.358 674.606 574.746 675.17C574.134 675.722 573.804 676.538 573.756 677.618H580.074ZM589.075 672.956C590.227 672.956 591.157 673.328 591.865 674.072C592.573 674.804 592.927 675.866 592.927 677.258V683H591.289V677.402C591.289 676.418 591.037 675.662 590.533 675.134C590.029 674.606 589.345 674.342 588.481 674.342C587.581 674.342 586.861 674.636 586.321 675.224C585.781 675.8 585.511 676.646 585.511 677.762V683H583.873V673.118H585.511V675.458C585.763 674.654 586.207 674.036 586.843 673.604C587.491 673.172 588.235 672.956 589.075 672.956ZM600.155 681.56V683H598.931C597.923 683 597.167 682.76 596.663 682.28C596.171 681.8 595.925 680.996 595.925 679.868V674.54H594.449V673.118H595.925V670.652H597.581V673.118H600.137V674.54H597.581V679.904C597.581 680.54 597.695 680.978 597.923 681.218C598.163 681.446 598.571 681.56 599.147 681.56H600.155ZM603.792 669.68V683H602.154V669.68H603.792ZM607.109 673.118L610.313 680.894L613.283 673.118H615.101L609.233 687.68H607.379L609.431 682.838L605.273 673.118H607.109ZM626.504 672.992C627.38 672.992 628.16 673.196 628.844 673.604C629.528 674.012 630.062 674.6 630.446 675.368C630.842 676.136 631.04 677.036 631.04 678.068C631.04 679.1 630.842 680 630.446 680.768C630.062 681.524 629.528 682.106 628.844 682.514C628.16 682.922 627.38 683.126 626.504 683.126C625.544 683.126 624.728 682.886 624.056 682.406C623.396 681.914 622.94 681.272 622.688 680.48V683H621.05V669.68H622.688V675.638C622.94 674.846 623.396 674.21 624.056 673.73C624.728 673.238 625.544 672.992 626.504 672.992ZM626.036 674.45C625.4 674.45 624.824 674.6 624.308 674.9C623.792 675.188 623.39 675.608 623.102 676.16C622.814 676.712 622.67 677.348 622.67 678.068C622.67 678.788 622.814 679.424 623.102 679.976C623.39 680.516 623.792 680.936 624.308 681.236C624.824 681.536 625.4 681.686 626.036 681.686C627.056 681.686 627.866 681.368 628.466 680.732C629.078 680.084 629.384 679.196 629.384 678.068C629.384 676.94 629.078 676.058 628.466 675.422C627.866 674.774 627.056 674.45 626.036 674.45ZM641.963 673.118V683H640.325V680.678C640.073 681.482 639.623 682.1 638.975 682.532C638.339 682.952 637.595 683.162 636.743 683.162C635.603 683.162 634.679 682.796 633.971 682.064C633.263 681.32 632.909 680.258 632.909 678.878V673.118H634.547V678.716C634.547 679.7 634.799 680.462 635.303 681.002C635.807 681.53 636.491 681.794 637.355 681.794C638.255 681.794 638.975 681.506 639.515 680.93C640.055 680.342 640.325 679.49 640.325 678.374V673.118H641.963ZM647.683 672.992C648.799 672.992 649.693 673.286 650.365 673.874C651.049 674.45 651.463 675.23 651.607 676.214H650.041C649.969 675.626 649.723 675.146 649.303 674.774C648.895 674.39 648.343 674.198 647.647 674.198C647.059 674.198 646.597 674.342 646.261 674.63C645.937 674.906 645.775 675.284 645.775 675.764C645.775 676.124 645.883 676.418 646.099 676.646C646.327 676.862 646.603 677.03 646.927 677.15C647.263 677.258 647.719 677.378 648.295 677.51C649.027 677.678 649.615 677.852 650.059 678.032C650.515 678.2 650.899 678.476 651.211 678.86C651.535 679.244 651.697 679.76 651.697 680.408C651.697 681.212 651.391 681.866 650.779 682.37C650.179 682.874 649.375 683.126 648.367 683.126C647.191 683.126 646.231 682.844 645.487 682.28C644.743 681.716 644.305 680.93 644.173 679.922H645.757C645.817 680.522 646.075 681.008 646.531 681.38C646.999 681.752 647.611 681.938 648.367 681.938C648.931 681.938 649.369 681.794 649.681 681.506C650.005 681.218 650.167 680.84 650.167 680.372C650.167 679.988 650.053 679.682 649.825 679.454C649.597 679.226 649.315 679.052 648.979 678.932C648.643 678.812 648.181 678.686 647.593 678.554C646.861 678.386 646.273 678.218 645.829 678.05C645.397 677.882 645.025 677.618 644.713 677.258C644.413 676.886 644.263 676.388 644.263 675.764C644.263 674.936 644.569 674.27 645.181 673.766C645.793 673.25 646.627 672.992 647.683 672.992ZM654.57 673.118L657.774 680.894L660.744 673.118H662.562L656.694 687.68H654.84L656.892 682.838L652.734 673.118H654.57ZM682.083 673.118L679.239 683H677.475L674.757 674.954L672.021 683H670.239L667.431 673.118H669.087L671.193 681.434L673.929 673.118H675.639L678.393 681.416L680.517 673.118H682.083ZM688.093 672.992C689.041 672.992 689.887 673.196 690.631 673.604C691.387 674.012 691.975 674.6 692.395 675.368C692.827 676.136 693.043 677.036 693.043 678.068C693.043 679.1 692.827 680 692.395 680.768C691.975 681.524 691.387 682.106 690.631 682.514C689.887 682.922 689.041 683.126 688.093 683.126C687.145 683.126 686.293 682.922 685.537 682.514C684.793 682.106 684.205 681.524 683.773 680.768C683.341 680 683.125 679.1 683.125 678.068C683.125 677.036 683.341 676.136 683.773 675.368C684.205 674.6 684.793 674.012 685.537 673.604C686.293 673.196 687.145 672.992 688.093 672.992ZM688.093 674.432C687.505 674.432 686.959 674.564 686.455 674.828C685.963 675.092 685.561 675.5 685.249 676.052C684.949 676.592 684.799 677.264 684.799 678.068C684.799 678.86 684.949 679.532 685.249 680.084C685.561 680.624 685.963 681.026 686.455 681.29C686.959 681.554 687.505 681.686 688.093 681.686C688.681 681.686 689.221 681.554 689.713 681.29C690.217 681.026 690.619 680.624 690.919 680.084C691.231 679.532 691.387 678.86 691.387 678.068C691.387 677.264 691.231 676.592 690.919 676.052C690.619 675.5 690.217 675.092 689.713 674.828C689.221 674.564 688.681 674.432 688.093 674.432ZM696.815 675.116C697.139 674.432 697.613 673.904 698.237 673.532C698.861 673.148 699.605 672.956 700.469 672.956V674.738H699.965C699.041 674.738 698.285 674.978 697.697 675.458C697.109 675.926 696.815 676.706 696.815 677.798V683H695.177V673.118H696.815V675.116ZM707.503 683L703.723 678.554V683H702.085V669.68H703.723V677.42L707.449 673.118H709.447L705.019 678.032L709.555 683H707.503ZM710.71 670.22C710.71 669.92 710.812 669.68 711.016 669.5C711.22 669.308 711.49 669.212 711.826 669.212C712.162 669.212 712.432 669.308 712.636 669.5C712.84 669.68 712.942 669.92 712.942 670.22C712.942 670.52 712.84 670.766 712.636 670.958C712.432 671.138 712.162 671.228 711.826 671.228C711.49 671.228 711.22 671.138 711.016 670.958C710.812 670.766 710.71 670.52 710.71 670.22ZM712.636 673.118V683H710.998V673.118H712.636ZM720.471 672.956C721.623 672.956 722.553 673.328 723.261 674.072C723.969 674.804 724.323 675.866 724.323 677.258V683H722.685V677.402C722.685 676.418 722.433 675.662 721.929 675.134C721.425 674.606 720.741 674.342 719.877 674.342C718.977 674.342 718.257 674.636 717.717 675.224C717.177 675.8 716.907 676.646 716.907 677.762V683H715.269V673.118H716.907V675.458C717.159 674.654 717.603 674.036 718.239 673.604C718.887 673.172 719.631 672.956 720.471 672.956ZM730.885 672.992C731.845 672.992 732.655 673.232 733.315 673.712C733.987 674.192 734.455 674.834 734.719 675.638V673.118H736.357V683.162C736.357 684.074 736.165 684.884 735.781 685.592C735.397 686.3 734.857 686.852 734.161 687.248C733.465 687.644 732.655 687.842 731.731 687.842C730.399 687.842 729.313 687.518 728.473 686.87C727.633 686.234 727.099 685.37 726.871 684.278H728.491C728.683 684.938 729.043 685.454 729.571 685.826C730.111 686.21 730.801 686.402 731.641 686.402C732.529 686.402 733.261 686.114 733.837 685.538C734.425 684.974 734.719 684.182 734.719 683.162V680.48C734.455 681.284 733.987 681.926 733.315 682.406C732.655 682.886 731.845 683.126 730.885 683.126C730.009 683.126 729.229 682.922 728.545 682.514C727.861 682.106 727.321 681.524 726.925 680.768C726.541 680 726.349 679.1 726.349 678.068C726.349 677.036 726.541 676.136 726.925 675.368C727.321 674.6 727.861 674.012 728.545 673.604C729.229 673.196 730.009 672.992 730.885 672.992ZM731.353 674.45C730.345 674.45 729.535 674.774 728.923 675.422C728.323 676.058 728.023 676.94 728.023 678.068C728.023 679.196 728.323 680.084 728.923 680.732C729.535 681.368 730.345 681.686 731.353 681.686C732.001 681.686 732.577 681.536 733.081 681.236C733.597 680.936 733.999 680.516 734.287 679.976C734.575 679.424 734.719 678.788 734.719 678.068C734.719 677.348 734.575 676.712 734.287 676.16C733.999 675.608 733.597 675.188 733.081 674.9C732.577 674.6 732.001 674.45 731.353 674.45ZM747.894 672.992C748.842 672.992 749.688 673.196 750.432 673.604C751.188 674.012 751.776 674.6 752.196 675.368C752.628 676.136 752.844 677.036 752.844 678.068C752.844 679.1 752.628 680 752.196 680.768C751.776 681.524 751.188 682.106 750.432 682.514C749.688 682.922 748.842 683.126 747.894 683.126C746.946 683.126 746.094 682.922 745.338 682.514C744.594 682.106 744.006 681.524 743.574 680.768C743.142 680 742.926 679.1 742.926 678.068C742.926 677.036 743.142 676.136 743.574 675.368C744.006 674.6 744.594 674.012 745.338 673.604C746.094 673.196 746.946 672.992 747.894 672.992ZM747.894 674.432C747.306 674.432 746.76 674.564 746.256 674.828C745.764 675.092 745.362 675.5 745.05 676.052C744.75 676.592 744.6 677.264 744.6 678.068C744.6 678.86 744.75 679.532 745.05 680.084C745.362 680.624 745.764 681.026 746.256 681.29C746.76 681.554 747.306 681.686 747.894 681.686C748.482 681.686 749.022 681.554 749.514 681.29C750.018 681.026 750.42 680.624 750.72 680.084C751.032 679.532 751.188 678.86 751.188 678.068C751.188 677.264 751.032 676.592 750.72 676.052C750.42 675.5 750.018 675.092 749.514 674.828C749.022 674.564 748.482 674.432 747.894 674.432ZM760.18 672.956C761.332 672.956 762.262 673.328 762.97 674.072C763.678 674.804 764.032 675.866 764.032 677.258V683H762.394V677.402C762.394 676.418 762.142 675.662 761.638 675.134C761.134 674.606 760.45 674.342 759.586 674.342C758.686 674.342 757.966 674.636 757.426 675.224C756.886 675.8 756.616 676.646 756.616 677.762V683H754.978V673.118H756.616V675.458C756.868 674.654 757.312 674.036 757.948 673.604C758.596 673.172 759.34 672.956 760.18 672.956ZM775.042 672.992C776.002 672.992 776.812 673.232 777.472 673.712C778.144 674.192 778.612 674.834 778.876 675.638V673.118H780.514V683H778.876V680.48C778.612 681.284 778.144 681.926 777.472 682.406C776.812 682.886 776.002 683.126 775.042 683.126C774.166 683.126 773.386 682.922 772.702 682.514C772.018 682.106 771.478 681.524 771.082 680.768C770.698 680 770.506 679.1 770.506 678.068C770.506 677.036 770.698 676.136 771.082 675.368C771.478 674.6 772.018 674.012 772.702 673.604C773.386 673.196 774.166 672.992 775.042 672.992ZM775.51 674.45C774.502 674.45 773.692 674.774 773.08 675.422C772.48 676.058 772.18 676.94 772.18 678.068C772.18 679.196 772.48 680.084 773.08 680.732C773.692 681.368 774.502 681.686 775.51 681.686C776.158 681.686 776.734 681.536 777.238 681.236C777.754 680.936 778.156 680.516 778.444 679.976C778.732 679.424 778.876 678.788 778.876 678.068C778.876 677.348 778.732 676.712 778.444 676.16C778.156 675.608 777.754 675.188 777.238 674.9C776.734 674.6 776.158 674.45 775.51 674.45ZM793.022 672.992C793.898 672.992 794.678 673.196 795.362 673.604C796.046 674.012 796.58 674.6 796.964 675.368C797.36 676.136 797.558 677.036 797.558 678.068C797.558 679.1 797.36 680 796.964 680.768C796.58 681.524 796.046 682.106 795.362 682.514C794.678 682.922 793.898 683.126 793.022 683.126C792.062 683.126 791.246 682.886 790.574 682.406C789.914 681.914 789.458 681.272 789.206 680.48V683H787.568V669.68H789.206V675.638C789.458 674.846 789.914 674.21 790.574 673.73C791.246 673.238 792.062 672.992 793.022 672.992ZM792.554 674.45C791.918 674.45 791.342 674.6 790.826 674.9C790.31 675.188 789.908 675.608 789.62 676.16C789.332 676.712 789.188 677.348 789.188 678.068C789.188 678.788 789.332 679.424 789.62 679.976C789.908 680.516 790.31 680.936 790.826 681.236C791.342 681.536 791.918 681.686 792.554 681.686C793.574 681.686 794.384 681.368 794.984 680.732C795.596 680.084 795.902 679.196 795.902 678.068C795.902 676.94 795.596 676.058 794.984 675.422C794.384 674.774 793.574 674.45 792.554 674.45ZM801.335 675.116C801.659 674.432 802.133 673.904 802.757 673.532C803.381 673.148 804.125 672.956 804.989 672.956V674.738H804.485C803.561 674.738 802.805 674.978 802.217 675.458C801.629 675.926 801.335 676.706 801.335 677.798V683H799.697V673.118H801.335V675.116ZM810.655 672.992C811.615 672.992 812.425 673.232 813.085 673.712C813.757 674.192 814.225 674.834 814.489 675.638V673.118H816.127V683H814.489V680.48C814.225 681.284 813.757 681.926 813.085 682.406C812.425 682.886 811.615 683.126 810.655 683.126C809.779 683.126 808.999 682.922 808.315 682.514C807.631 682.106 807.091 681.524 806.695 680.768C806.311 680 806.119 679.1 806.119 678.068C806.119 677.036 806.311 676.136 806.695 675.368C807.091 674.6 807.631 674.012 808.315 673.604C808.999 673.196 809.779 672.992 810.655 672.992ZM811.123 674.45C810.115 674.45 809.305 674.774 808.693 675.422C808.093 676.058 807.793 676.94 807.793 678.068C807.793 679.196 808.093 680.084 808.693 680.732C809.305 681.368 810.115 681.686 811.123 681.686C811.771 681.686 812.347 681.536 812.851 681.236C813.367 680.936 813.769 680.516 814.057 679.976C814.345 679.424 814.489 678.788 814.489 678.068C814.489 677.348 814.345 676.712 814.057 676.16C813.769 675.608 813.367 675.188 812.851 674.9C812.347 674.6 811.771 674.45 811.123 674.45ZM823.936 672.956C825.088 672.956 826.018 673.328 826.726 674.072C827.434 674.804 827.788 675.866 827.788 677.258V683H826.15V677.402C826.15 676.418 825.898 675.662 825.394 675.134C824.89 674.606 824.206 674.342 823.342 674.342C822.442 674.342 821.722 674.636 821.182 675.224C820.642 675.8 820.372 676.646 820.372 677.762V683H818.734V673.118H820.372V675.458C820.624 674.654 821.068 674.036 821.704 673.604C822.352 673.172 823.096 672.956 823.936 672.956ZM834.35 672.992C835.31 672.992 836.12 673.232 836.78 673.712C837.452 674.192 837.92 674.834 838.184 675.638V669.68H839.822V683H838.184V680.48C837.92 681.284 837.452 681.926 836.78 682.406C836.12 682.886 835.31 683.126 834.35 683.126C833.474 683.126 832.694 682.922 832.01 682.514C831.326 682.106 830.786 681.524 830.39 680.768C830.006 680 829.814 679.1 829.814 678.068C829.814 677.036 830.006 676.136 830.39 675.368C830.786 674.6 831.326 674.012 832.01 673.604C832.694 673.196 833.474 672.992 834.35 672.992ZM834.818 674.45C833.81 674.45 833 674.774 832.388 675.422C831.788 676.058 831.488 676.94 831.488 678.068C831.488 679.196 831.788 680.084 832.388 680.732C833 681.368 833.81 681.686 834.818 681.686C835.466 681.686 836.042 681.536 836.546 681.236C837.062 680.936 837.464 680.516 837.752 679.976C838.04 679.424 838.184 678.788 838.184 678.068C838.184 677.348 838.04 676.712 837.752 676.16C837.464 675.608 837.062 675.188 836.546 674.9C836.042 674.6 835.466 674.45 834.818 674.45ZM852.079 672.956C853.231 672.956 854.161 673.328 854.869 674.072C855.577 674.804 855.931 675.866 855.931 677.258V683H854.293V677.402C854.293 676.418 854.041 675.662 853.537 675.134C853.033 674.606 852.349 674.342 851.485 674.342C850.585 674.342 849.865 674.636 849.325 675.224C848.785 675.8 848.515 676.646 848.515 677.762V683H846.877V673.118H848.515V675.458C848.767 674.654 849.211 674.036 849.847 673.604C850.495 673.172 851.239 672.956 852.079 672.956ZM867.533 677.51C867.533 677.858 867.509 678.158 867.461 678.41H859.559C859.595 679.538 859.913 680.384 860.513 680.948C861.125 681.512 861.869 681.794 862.745 681.794C863.537 681.794 864.197 681.596 864.725 681.2C865.265 680.792 865.595 680.252 865.715 679.58H867.461C867.341 680.264 867.071 680.876 866.651 681.416C866.243 681.956 865.709 682.376 865.049 682.676C864.389 682.976 863.645 683.126 862.817 683.126C861.869 683.126 861.029 682.922 860.297 682.514C859.565 682.106 858.989 681.524 858.569 680.768C858.161 680 857.957 679.1 857.957 678.068C857.957 677.036 858.161 676.136 858.569 675.368C858.989 674.6 859.565 674.012 860.297 673.604C861.029 673.196 861.869 672.992 862.817 672.992C863.777 672.992 864.611 673.196 865.319 673.604C866.039 674.012 866.585 674.558 866.957 675.242C867.341 675.926 867.533 676.682 867.533 677.51ZM865.877 677.618C865.913 676.886 865.793 676.274 865.517 675.782C865.241 675.29 864.863 674.924 864.383 674.684C863.903 674.444 863.381 674.324 862.817 674.324C861.917 674.324 861.161 674.606 860.549 675.17C859.937 675.722 859.607 676.538 859.559 677.618H865.877ZM883.247 673.118L880.403 683H878.639L875.921 674.954L873.185 683H871.403L868.595 673.118H870.251L872.357 681.434L875.093 673.118H876.803L879.557 681.416L881.681 673.118H883.247ZM902.794 673.118L899.95 683H898.186L895.468 674.954L892.732 683H890.95L888.142 673.118H889.798L891.904 681.434L894.64 673.118H896.35L899.104 681.416L901.228 673.118H902.794ZM913.412 677.51C913.412 677.858 913.388 678.158 913.34 678.41H905.438C905.474 679.538 905.792 680.384 906.392 680.948C907.004 681.512 907.748 681.794 908.624 681.794C909.416 681.794 910.076 681.596 910.604 681.2C911.144 680.792 911.474 680.252 911.594 679.58H913.34C913.22 680.264 912.95 680.876 912.53 681.416C912.122 681.956 911.588 682.376 910.928 682.676C910.268 682.976 909.524 683.126 908.696 683.126C907.748 683.126 906.908 682.922 906.176 682.514C905.444 682.106 904.868 681.524 904.448 680.768C904.04 680 903.836 679.1 903.836 678.068C903.836 677.036 904.04 676.136 904.448 675.368C904.868 674.6 905.444 674.012 906.176 673.604C906.908 673.196 907.748 672.992 908.696 672.992C909.656 672.992 910.49 673.196 911.198 673.604C911.918 674.012 912.464 674.558 912.836 675.242C913.22 675.926 913.412 676.682 913.412 677.51ZM911.756 677.618C911.792 676.886 911.672 676.274 911.396 675.782C911.12 675.29 910.742 674.924 910.262 674.684C909.782 674.444 909.26 674.324 908.696 674.324C907.796 674.324 907.04 674.606 906.428 675.17C905.816 675.722 905.486 676.538 905.438 677.618H911.756ZM921.008 672.992C921.884 672.992 922.664 673.196 923.348 673.604C924.032 674.012 924.566 674.6 924.95 675.368C925.346 676.136 925.544 677.036 925.544 678.068C925.544 679.1 925.346 680 924.95 680.768C924.566 681.524 924.032 682.106 923.348 682.514C922.664 682.922 921.884 683.126 921.008 683.126C920.048 683.126 919.232 682.886 918.56 682.406C917.9 681.914 917.444 681.272 917.192 680.48V683H915.554V669.68H917.192V675.638C917.444 674.846 917.9 674.21 918.56 673.73C919.232 673.238 920.048 672.992 921.008 672.992ZM920.54 674.45C919.904 674.45 919.328 674.6 918.812 674.9C918.296 675.188 917.894 675.608 917.606 676.16C917.318 676.712 917.174 677.348 917.174 678.068C917.174 678.788 917.318 679.424 917.606 679.976C917.894 680.516 918.296 680.936 918.812 681.236C919.328 681.536 919.904 681.686 920.54 681.686C921.56 681.686 922.37 681.368 922.97 680.732C923.582 680.084 923.888 679.196 923.888 678.068C923.888 676.94 923.582 676.058 922.97 675.422C922.37 674.774 921.56 674.45 920.54 674.45ZM930.779 672.992C931.895 672.992 932.789 673.286 933.461 673.874C934.145 674.45 934.559 675.23 934.703 676.214H933.137C933.065 675.626 932.819 675.146 932.399 674.774C931.991 674.39 931.439 674.198 930.743 674.198C930.155 674.198 929.693 674.342 929.357 674.63C929.033 674.906 928.871 675.284 928.871 675.764C928.871 676.124 928.979 676.418 929.195 676.646C929.423 676.862 929.699 677.03 930.023 677.15C930.359 677.258 930.815 677.378 931.391 677.51C932.123 677.678 932.711 677.852 933.155 678.032C933.611 678.2 933.995 678.476 934.307 678.86C934.631 679.244 934.793 679.76 934.793 680.408C934.793 681.212 934.487 681.866 933.875 682.37C933.275 682.874 932.471 683.126 931.463 683.126C930.287 683.126 929.327 682.844 928.583 682.28C927.839 681.716 927.401 680.93 927.269 679.922H928.853C928.913 680.522 929.171 681.008 929.627 681.38C930.095 681.752 930.707 681.938 931.463 681.938C932.027 681.938 932.465 681.794 932.777 681.506C933.101 681.218 933.263 680.84 933.263 680.372C933.263 679.988 933.149 679.682 932.921 679.454C932.693 679.226 932.411 679.052 932.075 678.932C931.739 678.812 931.277 678.686 930.689 678.554C929.957 678.386 929.369 678.218 928.925 678.05C928.493 677.882 928.121 677.618 927.809 677.258C927.509 676.886 927.359 676.388 927.359 675.764C927.359 674.936 927.665 674.27 928.277 673.766C928.889 673.25 929.723 672.992 930.779 672.992ZM936.694 670.22C936.694 669.92 936.796 669.68 937 669.5C937.204 669.308 937.474 669.212 937.81 669.212C938.146 669.212 938.416 669.308 938.62 669.5C938.824 669.68 938.926 669.92 938.926 670.22C938.926 670.52 938.824 670.766 938.62 670.958C938.416 671.138 938.146 671.228 937.81 671.228C937.474 671.228 937.204 671.138 937 670.958C936.796 670.766 936.694 670.52 936.694 670.22ZM938.62 673.118V683H936.982V673.118H938.62ZM945.969 681.56V683H944.745C943.737 683 942.981 682.76 942.477 682.28C941.985 681.8 941.739 680.996 941.739 679.868V674.54H940.263V673.118H941.739V670.652H943.395V673.118H945.951V674.54H943.395V679.904C943.395 680.54 943.509 680.978 943.737 681.218C943.977 681.446 944.385 681.56 944.961 681.56H945.969ZM957.058 677.51C957.058 677.858 957.034 678.158 956.986 678.41H949.084C949.12 679.538 949.438 680.384 950.038 680.948C950.65 681.512 951.394 681.794 952.27 681.794C953.062 681.794 953.722 681.596 954.25 681.2C954.79 680.792 955.12 680.252 955.24 679.58H956.986C956.866 680.264 956.596 680.876 956.176 681.416C955.768 681.956 955.234 682.376 954.574 682.676C953.914 682.976 953.17 683.126 952.342 683.126C951.394 683.126 950.554 682.922 949.822 682.514C949.09 682.106 948.514 681.524 948.094 680.768C947.686 680 947.482 679.1 947.482 678.068C947.482 677.036 947.686 676.136 948.094 675.368C948.514 674.6 949.09 674.012 949.822 673.604C950.554 673.196 951.394 672.992 952.342 672.992C953.302 672.992 954.136 673.196 954.844 673.604C955.564 674.012 956.11 674.558 956.482 675.242C956.866 675.926 957.058 676.682 957.058 677.51ZM955.402 677.618C955.438 676.886 955.318 676.274 955.042 675.782C954.766 675.29 954.388 674.924 953.908 674.684C953.428 674.444 952.906 674.324 952.342 674.324C951.442 674.324 950.686 674.606 950.074 675.17C949.462 675.722 949.132 676.538 949.084 677.618H955.402Z" fill="#737472"/>
<path d="M628.865 328.685L636.113 323.239C636.908 322.645 638 323.239 638 324.13V333.141C636.312 333.339 634.425 333.141 632.738 332.25C630.95 331.557 629.66 330.27 628.865 328.685Z" fill="#F4C53D"/>
<path d="M616.057 338.29L625.49 331.161C626.78 333.141 628.568 334.924 630.851 336.013C633.135 337.102 635.617 337.498 637.901 337.3V349.084C633.731 349.282 629.461 348.49 625.49 346.509C621.518 344.529 618.341 341.756 616.057 338.29Z" fill="#50514F"/>
<path d="M637.9 366.808C631.248 366.907 624 365.521 617.645 362.353C611.092 359.085 605.83 354.431 601.858 348.886C602.652 348.291 603.447 347.697 604.34 347.004L612.681 340.766C615.361 344.727 619.134 347.994 623.702 350.272C628.269 352.549 633.134 353.54 637.9 353.342V366.808Z" fill="#50514F"/>
<path fill-rule="evenodd" clip-rule="evenodd" d="M637.206 370.967C630.156 371.066 622.61 369.383 615.858 366.016C608.808 362.551 603.149 357.599 598.78 351.658C597.669 353.065 596.668 354.619 596.316 356.976C596.664 354.645 597.647 353.1 598.743 351.705C597.83 356.798 597.372 368.783 612.482 373.542C614.462 374.135 624.934 379.355 624.008 391.658C630.853 387.379 635.922 380.154 637.206 370.967ZM596 393.049C599.112 388.999 601.019 385.926 601.543 382.555C601.019 385.926 599.112 388.998 596 393.049C596 393.049 596 393.049 596 393.049Z" fill="#F4C53D"/>
<path fill-rule="evenodd" clip-rule="evenodd" d="M598.743 351.704C596.18 354.964 594.238 359.047 599.574 372.056C603.447 381.265 601.858 385.424 596 393.049C605.623 397.634 616.023 396.65 624.008 391.658C624.934 379.355 614.462 374.134 612.482 373.542C597.371 368.783 597.83 356.797 598.743 351.704Z" fill="#FEE19D"/>
<path fill-rule="evenodd" clip-rule="evenodd" d="M606.117 395.871C606.094 395.592 606.065 395.311 606.028 395.03C605.53 391.105 603.683 387.555 600.963 384.853C600.076 387.394 598.395 389.932 596 393.049C599.324 394.632 602.74 395.552 606.117 395.871Z" fill="#50514F"/>
<path d="M658 355.275C658 359.275 652 359.275 652 355.275C652 351.375 658 351.375 658 355.275ZM652.6 361.975V385.175H657.4V361.975H652.6Z" fill="#585857"/>
<path d="M668.8 361.975V387.875C668.8 393.675 666.7 396.775 661.5 396.775C659.9 396.775 658.2 396.375 656.6 395.275L658.3 391.475C659.3 391.975 660.3 392.275 661.3 392.175C663.6 392.175 664 390.575 664 387.875V361.975H668.8ZM663.4 355.175C663.4 359.175 669.4 359.175 669.4 355.175C669.4 351.275 663.4 351.275 663.4 355.175Z" fill="#585857"/>
<path d="M690.1 367.775C688.3 366.075 686.3 365.575 684 365.575C681 365.575 679.1 366.475 679.1 368.375C679.1 370.275 681.2 371.075 684.1 371.375C688.4 371.775 693.9 372.675 693.9 378.675C693.9 382.975 690.1 385.975 684.1 385.975C680.3 385.975 676.6 385.175 673.6 381.675L676.1 378.275C678.3 380.675 681.5 381.675 684.2 381.675C686.5 381.675 689.1 380.875 689.1 378.675C689.1 376.575 687.2 375.775 683.8 375.475C679.4 375.075 674.4 373.675 674.4 368.575C674.4 363.475 679.7 361.575 684 361.575C687.6 361.575 690.3 362.375 692.9 364.675L690.1 367.775Z" fill="#585857"/>
<path d="M703.6 352.475V365.775C705.1 363.075 708.9 361.675 711.7 361.675C718.4 361.675 723.4 365.875 723.4 373.675C723.4 381.275 718.3 385.675 711.6 385.675C708.5 385.675 705.4 384.475 703.6 381.575L703.3 385.275H698.8V352.475H703.6ZM703.9 373.575C703.9 378.075 707.2 381.075 711.3 381.075C715.3 381.075 718.6 378.175 718.6 373.575C718.6 368.875 715.3 366.075 711.3 366.075C707.2 366.075 703.9 369.175 703.9 373.575Z" fill="#585857"/>
<path d="M733.1 362.075L733.4 365.075C735.1 362.075 737.7 361.475 740.2 361.475C742.5 361.475 744.6 362.275 745.9 363.475L743.7 367.675C742.5 366.775 741.4 366.275 739.6 366.275C736.3 366.275 733.4 368.375 733.4 372.575V385.075H728.6V362.075H733.1Z" fill="#585857"/>
<path d="M752.2 375.475C752.6 378.975 755.5 381.275 759.7 381.275C762 381.275 765 380.375 766.4 378.775L769.5 381.775C767.1 384.375 763.1 385.675 759.6 385.675C752 385.675 747.1 380.875 747.1 373.475C747.1 366.475 752 361.475 759.2 361.475C766.7 361.475 771.7 365.975 770.8 375.475H752.2ZM766.3 371.375C766 367.675 763.3 365.775 759.5 365.775C756 365.775 753.1 367.675 752.3 371.375H766.3Z" fill="#585857"/>
<path d="M780.7 352.475V371.575L789.3 362.075H795.2V362.375L785.2 372.975L796.5 384.875V385.175H790.6L780.7 374.475V385.175H775.8V352.475H780.7Z" fill="#585857"/>
<path d="M802.1 375.475C802.5 378.975 805.4 381.275 809.6 381.275C811.9 381.275 814.9 380.375 816.3 378.775L819.4 381.775C817 384.375 813 385.675 809.5 385.675C801.9 385.675 797 380.875 797 373.475C797 366.475 801.9 361.475 809.1 361.475C816.6 361.475 821.6 365.975 820.7 375.475H802.1ZM816.3 371.375C816 367.675 813.3 365.775 809.5 365.775C806 365.775 803.1 367.675 802.3 371.375H816.3Z" fill="#585857"/>
<path d="M830.3 362.075L830.6 365.075C832.3 362.075 834.9 361.475 837.4 361.475C839.7 361.475 841.8 362.275 843.1 363.475L840.9 367.675C839.7 366.775 838.6 366.275 836.8 366.275C833.5 366.275 830.6 368.375 830.6 372.575V385.075H825.8V362.075H830.3Z" fill="#585857"/>
<path d="M662.6 332.675C661.4 331.575 660.2 331.275 658.8 331.275C656.9 331.275 655.7 331.875 655.7 332.975C655.7 334.175 657 334.675 658.9 334.875C661.6 335.075 665.1 335.675 665.1 339.475C665.1 342.175 662.7 344.075 658.9 344.075C656.5 344.075 654.2 343.575 652.2 341.375L653.8 339.175C655.2 340.675 657.2 341.275 658.9 341.375C660.3 341.375 662 340.875 662 339.475C662 338.175 660.8 337.675 658.6 337.475C655.9 337.175 652.7 336.275 652.7 333.075C652.7 329.875 656 328.675 658.8 328.675C661 328.675 662.8 329.175 664.4 330.675L662.6 332.675Z" fill="#585857"/>
<path d="M672.7 324.975V329.175H677V331.775H672.7V338.675C672.7 340.175 673.4 341.075 674.8 341.075C675.4 341.075 676.1 340.875 676.7 340.575L677.6 343.175C676.6 343.575 675.7 343.875 674.7 343.875C671.5 343.975 669.7 342.175 669.7 338.775V331.775H666.9V329.175H669.7V325.275L672.7 324.975Z" fill="#585857"/>
<path d="M682.9 329.175V336.975C682.9 339.475 684.3 341.175 686.9 341.175C689.3 341.175 691 339.175 691 336.775V329.175H694V343.775H691.2L691 341.575C689.6 343.175 688 343.975 686 343.975C682.4 343.975 679.8 341.375 679.8 336.975V329.175H682.9Z" fill="#585857"/>
<path d="M712.7 323.075V343.775H709.8L709.6 341.475C708.4 343.375 706.5 344.075 704.5 344.075C700.3 344.075 697 341.275 697 336.475C697 331.475 700.2 328.875 704.4 328.875C706.2 328.875 708.6 329.775 709.5 331.475V323.075H712.7ZM700.2 336.375C700.2 339.275 702.2 341.175 704.8 341.175C707.3 341.175 709.4 339.275 709.4 336.375C709.4 333.575 707.3 331.675 704.8 331.675C702.3 331.675 700.2 333.375 700.2 336.375Z" fill="#585857"/>
<path d="M720.3 324.875C720.3 327.375 716.5 327.375 716.5 324.875C716.5 322.375 720.3 322.375 720.3 324.875ZM716.9 329.075V343.675H719.9V329.075H716.9Z" fill="#585857"/>
<path d="M738.2 336.475C738.2 340.775 735.2 344.075 730.6 344.075C726 344.075 723.1 340.775 723.1 336.475C723.1 332.175 726.1 328.875 730.6 328.875C735.1 328.875 738.2 332.175 738.2 336.475ZM726.2 336.475C726.2 339.075 727.9 341.175 730.7 341.175C733.5 341.175 735.2 339.075 735.2 336.475C735.2 333.875 733.4 331.675 730.7 331.675C727.9 331.675 726.2 333.875 726.2 336.475Z" fill="#585857"/>
<path d="M460.56 504.88C467.76 504.88 473.707 506.773 478.4 510.56C483.147 514.347 486.213 519.467 487.6 525.92H473.12C472.053 523.307 470.4 521.253 468.16 519.76C465.973 518.267 463.36 517.52 460.32 517.52C456.32 517.52 453.093 518.987 450.64 521.92C448.187 524.853 446.96 528.773 446.96 533.68C446.96 538.587 448.187 542.507 450.64 545.44C453.093 548.32 456.32 549.76 460.32 549.76C463.36 549.76 465.973 549.013 468.16 547.52C470.4 546.027 472.053 544 473.12 541.44H487.6C486.213 547.84 483.147 552.96 478.4 556.8C473.707 560.587 467.76 562.48 460.56 562.48C455.067 562.48 450.24 561.28 446.08 558.88C441.92 556.427 438.693 553.013 436.4 548.64C434.16 544.267 433.04 539.28 433.04 533.68C433.04 528.08 434.16 523.093 436.4 518.72C438.693 514.347 441.92 510.96 446.08 508.56C450.24 506.107 455.067 504.88 460.56 504.88ZM516.147 516.8C520.574 516.8 524.52 517.733 527.987 519.6C531.507 521.413 534.254 524.053 536.227 527.52C538.254 530.987 539.267 535.04 539.267 539.68C539.267 544.32 538.254 548.373 536.227 551.84C534.254 555.307 531.507 557.973 527.987 559.84C524.52 561.653 520.574 562.56 516.147 562.56C511.72 562.56 507.747 561.653 504.227 559.84C500.707 557.973 497.934 555.307 495.907 551.84C493.934 548.373 492.947 544.32 492.947 539.68C492.947 535.04 493.934 530.987 495.907 527.52C497.934 524.053 500.707 521.413 504.227 519.6C507.747 517.733 511.72 516.8 516.147 516.8ZM516.147 528.64C513.534 528.64 511.32 529.6 509.507 531.52C507.747 533.387 506.867 536.107 506.867 539.68C506.867 543.253 507.747 545.973 509.507 547.84C511.32 549.707 513.534 550.64 516.147 550.64C518.76 550.64 520.947 549.707 522.707 547.84C524.467 545.973 525.347 543.253 525.347 539.68C525.347 536.107 524.467 533.387 522.707 531.52C520.947 529.6 518.76 528.64 516.147 528.64ZM604.201 516.88C609.694 516.88 614.014 518.587 617.161 522C620.307 525.36 621.881 530.053 621.881 536.08V562H608.281V537.68C608.281 534.853 607.507 532.667 605.961 531.12C604.467 529.52 602.414 528.72 599.801 528.72C597.081 528.72 594.921 529.573 593.321 531.28C591.774 532.933 591.001 535.28 591.001 538.32V562H577.321V537.68C577.321 534.853 576.574 532.667 575.081 531.12C573.587 529.52 571.534 528.72 568.921 528.72C566.201 528.72 564.041 529.547 562.441 531.2C560.841 532.853 560.041 535.227 560.041 538.32V562H546.361V517.36H560.041V524.96C561.214 522.453 563.001 520.48 565.401 519.04C567.854 517.6 570.707 516.88 573.961 516.88C577.374 516.88 580.387 517.68 583.001 519.28C585.614 520.827 587.587 523.067 588.921 526C590.467 523.227 592.574 521.013 595.241 519.36C597.961 517.707 600.947 516.88 604.201 516.88ZM629.69 504.8C629.69 502.72 630.437 501.013 631.93 499.68C633.423 498.293 635.397 497.6 637.85 497.6C640.303 497.6 642.277 498.293 643.77 499.68C645.263 501.013 646.01 502.72 646.01 504.8C646.01 506.827 645.263 508.533 643.77 509.92C642.277 511.253 640.303 511.92 637.85 511.92C635.397 511.92 633.423 511.253 631.93 509.92C630.437 508.533 629.69 506.827 629.69 504.8ZM644.65 517.36V562H630.97V517.36H644.65ZM682.415 516.88C687.535 516.88 691.588 518.587 694.575 522C697.615 525.413 699.135 530.107 699.135 536.08V562H685.455V537.68C685.455 534.693 684.655 532.373 683.055 530.72C681.508 529.013 679.428 528.16 676.815 528.16C674.042 528.16 671.828 529.04 670.175 530.8C668.575 532.56 667.775 535.067 667.775 538.32V562H654.095V517.36H667.775V525.52C669.055 522.853 670.948 520.747 673.455 519.2C676.015 517.653 679.002 516.88 682.415 516.88ZM725.118 516.8C728.531 516.8 731.464 517.573 733.918 519.12C736.371 520.667 738.184 522.773 739.358 525.44V517.36H752.958V561.76C752.958 565.92 752.158 569.653 750.558 572.96C748.958 576.32 746.504 578.987 743.198 580.96C739.891 582.933 735.784 583.92 730.878 583.92C724.158 583.92 718.771 582.32 714.718 579.12C710.718 575.973 708.318 571.68 707.518 566.24H721.038C721.464 568.053 722.424 569.467 723.918 570.48C725.464 571.493 727.464 572 729.918 572C732.744 572 735.011 571.173 736.718 569.52C738.478 567.92 739.358 565.333 739.358 561.76V553.92C738.184 556.587 736.371 558.693 733.918 560.24C731.464 561.787 728.531 562.56 725.118 562.56C721.438 562.56 718.131 561.653 715.197 559.84C712.318 557.973 710.024 555.307 708.318 551.84C706.664 548.373 705.838 544.32 705.838 539.68C705.838 534.987 706.664 530.933 708.318 527.52C710.024 524.053 712.318 521.413 715.197 519.6C718.131 517.733 721.438 516.8 725.118 516.8ZM729.518 528.8C726.584 528.8 724.211 529.76 722.398 531.68C720.638 533.6 719.758 536.267 719.758 539.68C719.758 543.093 720.638 545.76 722.398 547.68C724.211 549.6 726.584 550.56 729.518 550.56C732.398 550.56 734.744 549.573 736.558 547.6C738.424 545.627 739.358 542.987 739.358 539.68C739.358 536.32 738.424 533.68 736.558 531.76C734.744 529.787 732.398 528.8 729.518 528.8ZM794.632 516.8C800.285 516.8 804.792 518.213 808.152 521.04C811.565 523.867 813.699 527.6 814.552 532.24H801.752C801.379 530.427 800.525 529.013 799.192 528C797.912 526.933 796.285 526.4 794.312 526.4C792.765 526.4 791.592 526.747 790.792 527.44C789.992 528.08 789.592 529.013 789.592 530.24C789.592 531.627 790.312 532.667 791.752 533.36C793.245 534.053 795.565 534.747 798.712 535.44C802.125 536.24 804.925 537.067 807.112 537.92C809.299 538.72 811.192 540.053 812.792 541.92C814.392 543.787 815.192 546.293 815.192 549.44C815.192 552 814.499 554.267 813.112 556.24C811.725 558.213 809.725 559.76 807.112 560.88C804.499 562 801.405 562.56 797.832 562.56C791.805 562.56 786.979 561.227 783.352 558.56C779.725 555.893 777.512 552.08 776.712 547.12H789.912C790.125 549.04 790.925 550.507 792.312 551.52C793.752 552.533 795.592 553.04 797.832 553.04C799.379 553.04 800.552 552.693 801.352 552C802.152 551.253 802.552 550.293 802.552 549.12C802.552 547.573 801.805 546.48 800.312 545.84C798.872 545.147 796.499 544.427 793.192 543.68C789.885 542.987 787.165 542.24 785.032 541.44C782.899 540.64 781.059 539.36 779.512 537.6C777.965 535.787 777.192 533.333 777.192 530.24C777.192 526.24 778.712 523.013 781.752 520.56C784.792 518.053 789.085 516.8 794.632 516.8ZM843.647 516.8C848.074 516.8 852.02 517.733 855.487 519.6C859.007 521.413 861.754 524.053 863.727 527.52C865.754 530.987 866.767 535.04 866.767 539.68C866.767 544.32 865.754 548.373 863.727 551.84C861.754 555.307 859.007 557.973 855.487 559.84C852.02 561.653 848.074 562.56 843.647 562.56C839.22 562.56 835.247 561.653 831.727 559.84C828.207 557.973 825.434 555.307 823.407 551.84C821.434 548.373 820.447 544.32 820.447 539.68C820.447 535.04 821.434 530.987 823.407 527.52C825.434 524.053 828.207 521.413 831.727 519.6C835.247 517.733 839.22 516.8 843.647 516.8ZM843.647 528.64C841.034 528.64 838.82 529.6 837.007 531.52C835.247 533.387 834.367 536.107 834.367 539.68C834.367 543.253 835.247 545.973 837.007 547.84C838.82 549.707 841.034 550.64 843.647 550.64C846.26 550.64 848.447 549.707 850.207 547.84C851.967 545.973 852.847 543.253 852.847 539.68C852.847 536.107 851.967 533.387 850.207 531.52C848.447 529.6 846.26 528.64 843.647 528.64ZM894.741 516.8C899.167 516.8 903.114 517.733 906.581 519.6C910.101 521.413 912.847 524.053 914.821 527.52C916.847 530.987 917.861 535.04 917.861 539.68C917.861 544.32 916.847 548.373 914.821 551.84C912.847 555.307 910.101 557.973 906.581 559.84C903.114 561.653 899.167 562.56 894.741 562.56C890.314 562.56 886.341 561.653 882.821 559.84C879.301 557.973 876.527 555.307 874.501 551.84C872.527 548.373 871.541 544.32 871.541 539.68C871.541 535.04 872.527 530.987 874.501 527.52C876.527 524.053 879.301 521.413 882.821 519.6C886.341 517.733 890.314 516.8 894.741 516.8ZM894.741 528.64C892.127 528.64 889.914 529.6 888.101 531.52C886.341 533.387 885.461 536.107 885.461 539.68C885.461 543.253 886.341 545.973 888.101 547.84C889.914 549.707 892.127 550.64 894.741 550.64C897.354 550.64 899.541 549.707 901.301 547.84C903.061 545.973 903.941 543.253 903.941 539.68C903.941 536.107 903.061 533.387 901.301 531.52C899.541 529.6 897.354 528.64 894.741 528.64ZM953.274 516.88C958.394 516.88 962.448 518.587 965.434 522C968.474 525.413 969.994 530.107 969.994 536.08V562H956.314V537.68C956.314 534.693 955.514 532.373 953.914 530.72C952.368 529.013 950.288 528.16 947.674 528.16C944.901 528.16 942.688 529.04 941.034 530.8C939.434 532.56 938.634 535.067 938.634 538.32V562H924.954V517.36H938.634V525.52C939.914 522.853 941.808 520.747 944.314 519.2C946.874 517.653 949.861 516.88 953.274 516.88ZM997.737 502.64L996.057 541.76H984.457L982.777 502.64H997.737ZM997.417 548.32V562H983.177V548.32H997.417Z" fill="#0D2A3E"/>
</g>
<defs>
<filter id="filter0_dd_2925:18754" x="336" y="248" width="768" height="561" filterUnits="userSpaceOnUse" color-interpolation-filters="sRGB">
<feFlood flood-opacity="0" result="BackgroundImageFix"/>
<feColorMatrix in="SourceAlpha" type="matrix" values="0 0 0 0 0 0 0 0 0 0 0 0 0 0 0 0 0 0 127 0" result="hardAlpha"/>
<feOffset/>
<feGaussianBlur stdDeviation="2"/>
<feColorMatrix type="matrix" values="0 0 0 0 0.175139 0 0 0 0 0.548561 0 0 0 0 0.808333 0 0 0 0.16 0"/>
<feBlend mode="normal" in2="BackgroundImageFix" result="effect1_dropShadow_2925:18754"/>
<feColorMatrix in="SourceAlpha" type="matrix" values="0 0 0 0 0 0 0 0 0 0 0 0 0 0 0 0 0 0 127 0" result="hardAlpha"/>
<feOffset dy="16"/>
<feGaussianBlur stdDeviation="12"/>
<feColorMatrix type="matrix" values="0 0 0 0 0.175139 0 0 0 0 0.548561 0 0 0 0 0.808333 0 0 0 0.16 0"/>
<feBlend mode="normal" in2="effect1_dropShadow_2925:18754" result="effect2_dropShadow_2925:18754"/>
<feBlend mode="normal" in="SourceGraphic" in2="effect2_dropShadow_2925:18754" result="shape"/>
</filter>
<radialGradient id="paint0_radial_2925:18754" cx="0" cy="0" r="1" gradientUnits="userSpaceOnUse" gradientTransform="translate(1351.79 890.664) rotate(-71.7642) scale(875.662 1410.03)">
<stop offset="0.551338" stop-color="#FAE29E"/>
<stop offset="1" stop-color="#F4C53D"/>
</radialGradient>
<clipPath id="clip0_2925:18754">
<rect width="1440" height="1024" fill="white"/>
</clipPath>
</defs>
</svg>
