<svg width="768" height="561" viewBox="0 0 768 561" fill="none" xmlns="http://www.w3.org/2000/svg">
<g filter="url(#filter0_dd_3037:18789)">
<path d="M24 40C24 22.3269 38.3269 8 56 8H736C740.418 8 744 11.5817 744 16V489C744 506.673 729.673 521 712 521H32C27.5817 521 24 517.418 24 513V40Z" fill="#FEF9EC"/>
</g>
<path d="M147.92 422.31L144.698 435H142.7L139.766 424.632L136.832 435H134.834L131.594 422.31H133.412L135.842 433.092L138.848 422.31H140.666L143.672 433.056L146.12 422.31H147.92ZM158.929 429.51C158.929 429.858 158.905 430.158 158.857 430.41H150.955C150.991 431.538 151.309 432.384 151.909 432.948C152.521 433.512 153.265 433.794 154.141 433.794C154.933 433.794 155.593 433.596 156.121 433.2C156.661 432.792 156.991 432.252 157.111 431.58H158.857C158.737 432.264 158.467 432.876 158.047 433.416C157.639 433.956 157.105 434.376 156.445 434.676C155.785 434.976 155.041 435.126 154.213 435.126C153.265 435.126 152.425 434.922 151.693 434.514C150.961 434.106 150.385 433.524 149.965 432.768C149.557 432 149.353 431.1 149.353 430.068C149.353 429.036 149.557 428.136 149.965 427.368C150.385 426.6 150.961 426.012 151.693 425.604C152.425 425.196 153.265 424.992 154.213 424.992C155.173 424.992 156.007 425.196 156.715 425.604C157.435 426.012 157.981 426.558 158.353 427.242C158.737 427.926 158.929 428.682 158.929 429.51ZM157.273 429.618C157.309 428.886 157.189 428.274 156.913 427.782C156.637 427.29 156.259 426.924 155.779 426.684C155.299 426.444 154.777 426.324 154.213 426.324C153.313 426.324 152.557 426.606 151.945 427.17C151.333 427.722 151.003 428.538 150.955 429.618H157.273ZM169.569 424.992C170.529 424.992 171.339 425.232 171.999 425.712C172.671 426.192 173.139 426.834 173.403 427.638V425.118H175.041V435H173.403V432.48C173.139 433.284 172.671 433.926 171.999 434.406C171.339 434.886 170.529 435.126 169.569 435.126C168.693 435.126 167.913 434.922 167.229 434.514C166.545 434.106 166.005 433.524 165.609 432.768C165.225 432 165.033 431.1 165.033 430.068C165.033 429.036 165.225 428.136 165.609 427.368C166.005 426.6 166.545 426.012 167.229 425.604C167.913 425.196 168.693 424.992 169.569 424.992ZM170.037 426.45C169.029 426.45 168.219 426.774 167.607 427.422C167.007 428.058 166.707 428.94 166.707 430.068C166.707 431.196 167.007 432.084 167.607 432.732C168.219 433.368 169.029 433.686 170.037 433.686C170.685 433.686 171.261 433.536 171.765 433.236C172.281 432.936 172.683 432.516 172.971 431.976C173.259 431.424 173.403 430.788 173.403 430.068C173.403 429.348 173.259 428.712 172.971 428.16C172.683 427.608 172.281 427.188 171.765 426.9C171.261 426.6 170.685 426.45 170.037 426.45ZM179.286 427.116C179.61 426.432 180.084 425.904 180.708 425.532C181.332 425.148 182.076 424.956 182.94 424.956V426.738H182.436C181.512 426.738 180.756 426.978 180.168 427.458C179.58 427.926 179.286 428.706 179.286 429.798V435H177.648V425.118H179.286V427.116ZM193.646 429.51C193.646 429.858 193.622 430.158 193.574 430.41H185.672C185.708 431.538 186.026 432.384 186.626 432.948C187.238 433.512 187.982 433.794 188.858 433.794C189.65 433.794 190.31 433.596 190.838 433.2C191.378 432.792 191.708 432.252 191.828 431.58H193.574C193.454 432.264 193.184 432.876 192.764 433.416C192.356 433.956 191.822 434.376 191.162 434.676C190.502 434.976 189.758 435.126 188.93 435.126C187.982 435.126 187.142 434.922 186.41 434.514C185.678 434.106 185.102 433.524 184.682 432.768C184.274 432 184.07 431.1 184.07 430.068C184.07 429.036 184.274 428.136 184.682 427.368C185.102 426.6 185.678 426.012 186.41 425.604C187.142 425.196 187.982 424.992 188.93 424.992C189.89 424.992 190.724 425.196 191.432 425.604C192.152 426.012 192.698 426.558 193.07 427.242C193.454 427.926 193.646 428.682 193.646 429.51ZM191.99 429.618C192.026 428.886 191.906 428.274 191.63 427.782C191.354 427.29 190.976 426.924 190.496 426.684C190.016 426.444 189.494 426.324 188.93 426.324C188.03 426.324 187.274 426.606 186.662 427.17C186.05 427.722 185.72 428.538 185.672 429.618H191.99ZM204.61 424.992C205.87 424.992 206.914 425.328 207.742 426C208.57 426.672 209.08 427.572 209.272 428.7H207.544C207.424 427.992 207.094 427.44 206.554 427.044C206.026 426.636 205.366 426.432 204.574 426.432C203.998 426.432 203.47 426.564 202.99 426.828C202.522 427.092 202.144 427.5 201.856 428.052C201.568 428.592 201.424 429.264 201.424 430.068C201.424 430.872 201.568 431.55 201.856 432.102C202.144 432.642 202.522 433.044 202.99 433.308C203.47 433.572 203.998 433.704 204.574 433.704C205.366 433.704 206.026 433.5 206.554 433.092C207.094 432.684 207.424 432.126 207.544 431.418H209.272C209.08 432.558 208.57 433.464 207.742 434.136C206.914 434.796 205.87 435.126 204.61 435.126C203.662 435.126 202.822 434.922 202.09 434.514C201.358 434.106 200.782 433.524 200.362 432.768C199.954 432 199.75 431.1 199.75 430.068C199.75 429.036 199.954 428.136 200.362 427.368C200.782 426.6 201.358 426.012 202.09 425.604C202.822 425.196 203.662 424.992 204.61 424.992ZM220.2 425.118V435H218.562V432.678C218.31 433.482 217.86 434.1 217.212 434.532C216.576 434.952 215.832 435.162 214.98 435.162C213.84 435.162 212.916 434.796 212.208 434.064C211.5 433.32 211.146 432.258 211.146 430.878V425.118H212.784V430.716C212.784 431.7 213.036 432.462 213.54 433.002C214.044 433.53 214.728 433.794 215.592 433.794C216.492 433.794 217.212 433.506 217.752 432.93C218.292 432.342 218.562 431.49 218.562 430.374V425.118H220.2ZM224.462 427.116C224.786 426.432 225.26 425.904 225.884 425.532C226.508 425.148 227.252 424.956 228.116 424.956V426.738H227.612C226.688 426.738 225.932 426.978 225.344 427.458C224.756 427.926 224.462 428.706 224.462 429.798V435H222.824V425.118H224.462V427.116ZM231.37 427.116C231.694 426.432 232.168 425.904 232.792 425.532C233.416 425.148 234.16 424.956 235.024 424.956V426.738H234.52C233.596 426.738 232.84 426.978 232.252 427.458C231.664 427.926 231.37 428.706 231.37 429.798V435H229.732V425.118H231.37V427.116ZM245.73 429.51C245.73 429.858 245.706 430.158 245.658 430.41H237.756C237.792 431.538 238.11 432.384 238.71 432.948C239.322 433.512 240.066 433.794 240.942 433.794C241.734 433.794 242.394 433.596 242.922 433.2C243.462 432.792 243.792 432.252 243.912 431.58H245.658C245.538 432.264 245.268 432.876 244.848 433.416C244.44 433.956 243.906 434.376 243.246 434.676C242.586 434.976 241.842 435.126 241.014 435.126C240.066 435.126 239.226 434.922 238.494 434.514C237.762 434.106 237.186 433.524 236.766 432.768C236.358 432 236.154 431.1 236.154 430.068C236.154 429.036 236.358 428.136 236.766 427.368C237.186 426.6 237.762 426.012 238.494 425.604C239.226 425.196 240.066 424.992 241.014 424.992C241.974 424.992 242.808 425.196 243.516 425.604C244.236 426.012 244.782 426.558 245.154 427.242C245.538 427.926 245.73 428.682 245.73 429.51ZM244.074 429.618C244.11 428.886 243.99 428.274 243.714 427.782C243.438 427.29 243.06 426.924 242.58 426.684C242.1 426.444 241.578 426.324 241.014 426.324C240.114 426.324 239.358 426.606 238.746 427.17C238.134 427.722 237.804 428.538 237.756 429.618H244.074ZM253.075 424.956C254.227 424.956 255.157 425.328 255.865 426.072C256.573 426.804 256.927 427.866 256.927 429.258V435H255.289V429.402C255.289 428.418 255.037 427.662 254.533 427.134C254.029 426.606 253.345 426.342 252.481 426.342C251.581 426.342 250.861 426.636 250.321 427.224C249.781 427.8 249.511 428.646 249.511 429.762V435H247.873V425.118H249.511V427.458C249.763 426.654 250.207 426.036 250.843 425.604C251.491 425.172 252.235 424.956 253.075 424.956ZM264.155 433.56V435H262.931C261.923 435 261.167 434.76 260.663 434.28C260.171 433.8 259.925 432.996 259.925 431.868V426.54H258.449V425.118H259.925V422.652H261.581V425.118H264.137V426.54H261.581V431.904C261.581 432.54 261.695 432.978 261.923 433.218C262.163 433.446 262.571 433.56 263.147 433.56H264.155ZM267.792 421.68V435H266.154V421.68H267.792ZM271.109 425.118L274.313 432.894L277.283 425.118H279.101L273.233 439.68H271.379L273.431 434.838L269.273 425.118H271.109ZM290.504 424.992C291.38 424.992 292.16 425.196 292.844 425.604C293.528 426.012 294.062 426.6 294.446 427.368C294.842 428.136 295.04 429.036 295.04 430.068C295.04 431.1 294.842 432 294.446 432.768C294.062 433.524 293.528 434.106 292.844 434.514C292.16 434.922 291.38 435.126 290.504 435.126C289.544 435.126 288.728 434.886 288.056 434.406C287.396 433.914 286.94 433.272 286.688 432.48V435H285.05V421.68H286.688V427.638C286.94 426.846 287.396 426.21 288.056 425.73C288.728 425.238 289.544 424.992 290.504 424.992ZM290.036 426.45C289.4 426.45 288.824 426.6 288.308 426.9C287.792 427.188 287.39 427.608 287.102 428.16C286.814 428.712 286.67 429.348 286.67 430.068C286.67 430.788 286.814 431.424 287.102 431.976C287.39 432.516 287.792 432.936 288.308 433.236C288.824 433.536 289.4 433.686 290.036 433.686C291.056 433.686 291.866 433.368 292.466 432.732C293.078 432.084 293.384 431.196 293.384 430.068C293.384 428.94 293.078 428.058 292.466 427.422C291.866 426.774 291.056 426.45 290.036 426.45ZM305.963 425.118V435H304.325V432.678C304.073 433.482 303.623 434.1 302.975 434.532C302.339 434.952 301.595 435.162 300.743 435.162C299.603 435.162 298.679 434.796 297.971 434.064C297.263 433.32 296.909 432.258 296.909 430.878V425.118H298.547V430.716C298.547 431.7 298.799 432.462 299.303 433.002C299.807 433.53 300.491 433.794 301.355 433.794C302.255 433.794 302.975 433.506 303.515 432.93C304.055 432.342 304.325 431.49 304.325 430.374V425.118H305.963ZM311.683 424.992C312.799 424.992 313.693 425.286 314.365 425.874C315.049 426.45 315.463 427.23 315.607 428.214H314.041C313.969 427.626 313.723 427.146 313.303 426.774C312.895 426.39 312.343 426.198 311.647 426.198C311.059 426.198 310.597 426.342 310.261 426.63C309.937 426.906 309.775 427.284 309.775 427.764C309.775 428.124 309.883 428.418 310.099 428.646C310.327 428.862 310.603 429.03 310.927 429.15C311.263 429.258 311.719 429.378 312.295 429.51C313.027 429.678 313.615 429.852 314.059 430.032C314.515 430.2 314.899 430.476 315.211 430.86C315.535 431.244 315.697 431.76 315.697 432.408C315.697 433.212 315.391 433.866 314.779 434.37C314.179 434.874 313.375 435.126 312.367 435.126C311.191 435.126 310.231 434.844 309.487 434.28C308.743 433.716 308.305 432.93 308.173 431.922H309.757C309.817 432.522 310.075 433.008 310.531 433.38C310.999 433.752 311.611 433.938 312.367 433.938C312.931 433.938 313.369 433.794 313.681 433.506C314.005 433.218 314.167 432.84 314.167 432.372C314.167 431.988 314.053 431.682 313.825 431.454C313.597 431.226 313.315 431.052 312.979 430.932C312.643 430.812 312.181 430.686 311.593 430.554C310.861 430.386 310.273 430.218 309.829 430.05C309.397 429.882 309.025 429.618 308.713 429.258C308.413 428.886 308.263 428.388 308.263 427.764C308.263 426.936 308.569 426.27 309.181 425.766C309.793 425.25 310.627 424.992 311.683 424.992ZM318.57 425.118L321.774 432.894L324.744 425.118H326.562L320.694 439.68H318.84L320.892 434.838L316.734 425.118H318.57ZM346.083 425.118L343.239 435H341.475L338.757 426.954L336.021 435H334.239L331.431 425.118H333.087L335.193 433.434L337.929 425.118H339.639L342.393 433.416L344.517 425.118H346.083ZM352.093 424.992C353.041 424.992 353.887 425.196 354.631 425.604C355.387 426.012 355.975 426.6 356.395 427.368C356.827 428.136 357.043 429.036 357.043 430.068C357.043 431.1 356.827 432 356.395 432.768C355.975 433.524 355.387 434.106 354.631 434.514C353.887 434.922 353.041 435.126 352.093 435.126C351.145 435.126 350.293 434.922 349.537 434.514C348.793 434.106 348.205 433.524 347.773 432.768C347.341 432 347.125 431.1 347.125 430.068C347.125 429.036 347.341 428.136 347.773 427.368C348.205 426.6 348.793 426.012 349.537 425.604C350.293 425.196 351.145 424.992 352.093 424.992ZM352.093 426.432C351.505 426.432 350.959 426.564 350.455 426.828C349.963 427.092 349.561 427.5 349.249 428.052C348.949 428.592 348.799 429.264 348.799 430.068C348.799 430.86 348.949 431.532 349.249 432.084C349.561 432.624 349.963 433.026 350.455 433.29C350.959 433.554 351.505 433.686 352.093 433.686C352.681 433.686 353.221 433.554 353.713 433.29C354.217 433.026 354.619 432.624 354.919 432.084C355.231 431.532 355.387 430.86 355.387 430.068C355.387 429.264 355.231 428.592 354.919 428.052C354.619 427.5 354.217 427.092 353.713 426.828C353.221 426.564 352.681 426.432 352.093 426.432ZM360.815 427.116C361.139 426.432 361.613 425.904 362.237 425.532C362.861 425.148 363.605 424.956 364.469 424.956V426.738H363.965C363.041 426.738 362.285 426.978 361.697 427.458C361.109 427.926 360.815 428.706 360.815 429.798V435H359.177V425.118H360.815V427.116ZM371.503 435L367.723 430.554V435H366.085V421.68H367.723V429.42L371.449 425.118H373.447L369.019 430.032L373.555 435H371.503ZM374.71 422.22C374.71 421.92 374.812 421.68 375.016 421.5C375.22 421.308 375.49 421.212 375.826 421.212C376.162 421.212 376.432 421.308 376.636 421.5C376.84 421.68 376.942 421.92 376.942 422.22C376.942 422.52 376.84 422.766 376.636 422.958C376.432 423.138 376.162 423.228 375.826 423.228C375.49 423.228 375.22 423.138 375.016 422.958C374.812 422.766 374.71 422.52 374.71 422.22ZM376.636 425.118V435H374.998V425.118H376.636ZM384.471 424.956C385.623 424.956 386.553 425.328 387.261 426.072C387.969 426.804 388.323 427.866 388.323 429.258V435H386.685V429.402C386.685 428.418 386.433 427.662 385.929 427.134C385.425 426.606 384.741 426.342 383.877 426.342C382.977 426.342 382.257 426.636 381.717 427.224C381.177 427.8 380.907 428.646 380.907 429.762V435H379.269V425.118H380.907V427.458C381.159 426.654 381.603 426.036 382.239 425.604C382.887 425.172 383.631 424.956 384.471 424.956ZM394.885 424.992C395.845 424.992 396.655 425.232 397.315 425.712C397.987 426.192 398.455 426.834 398.719 427.638V425.118H400.357V435.162C400.357 436.074 400.165 436.884 399.781 437.592C399.397 438.3 398.857 438.852 398.161 439.248C397.465 439.644 396.655 439.842 395.731 439.842C394.399 439.842 393.313 439.518 392.473 438.87C391.633 438.234 391.099 437.37 390.871 436.278H392.491C392.683 436.938 393.043 437.454 393.571 437.826C394.111 438.21 394.801 438.402 395.641 438.402C396.529 438.402 397.261 438.114 397.837 437.538C398.425 436.974 398.719 436.182 398.719 435.162V432.48C398.455 433.284 397.987 433.926 397.315 434.406C396.655 434.886 395.845 435.126 394.885 435.126C394.009 435.126 393.229 434.922 392.545 434.514C391.861 434.106 391.321 433.524 390.925 432.768C390.541 432 390.349 431.1 390.349 430.068C390.349 429.036 390.541 428.136 390.925 427.368C391.321 426.6 391.861 426.012 392.545 425.604C393.229 425.196 394.009 424.992 394.885 424.992ZM395.353 426.45C394.345 426.45 393.535 426.774 392.923 427.422C392.323 428.058 392.023 428.94 392.023 430.068C392.023 431.196 392.323 432.084 392.923 432.732C393.535 433.368 394.345 433.686 395.353 433.686C396.001 433.686 396.577 433.536 397.081 433.236C397.597 432.936 397.999 432.516 398.287 431.976C398.575 431.424 398.719 430.788 398.719 430.068C398.719 429.348 398.575 428.712 398.287 428.16C397.999 427.608 397.597 427.188 397.081 426.9C396.577 426.6 396.001 426.45 395.353 426.45ZM411.894 424.992C412.842 424.992 413.688 425.196 414.432 425.604C415.188 426.012 415.776 426.6 416.196 427.368C416.628 428.136 416.844 429.036 416.844 430.068C416.844 431.1 416.628 432 416.196 432.768C415.776 433.524 415.188 434.106 414.432 434.514C413.688 434.922 412.842 435.126 411.894 435.126C410.946 435.126 410.094 434.922 409.338 434.514C408.594 434.106 408.006 433.524 407.574 432.768C407.142 432 406.926 431.1 406.926 430.068C406.926 429.036 407.142 428.136 407.574 427.368C408.006 426.6 408.594 426.012 409.338 425.604C410.094 425.196 410.946 424.992 411.894 424.992ZM411.894 426.432C411.306 426.432 410.76 426.564 410.256 426.828C409.764 427.092 409.362 427.5 409.05 428.052C408.75 428.592 408.6 429.264 408.6 430.068C408.6 430.86 408.75 431.532 409.05 432.084C409.362 432.624 409.764 433.026 410.256 433.29C410.76 433.554 411.306 433.686 411.894 433.686C412.482 433.686 413.022 433.554 413.514 433.29C414.018 433.026 414.42 432.624 414.72 432.084C415.032 431.532 415.188 430.86 415.188 430.068C415.188 429.264 415.032 428.592 414.72 428.052C414.42 427.5 414.018 427.092 413.514 426.828C413.022 426.564 412.482 426.432 411.894 426.432ZM424.18 424.956C425.332 424.956 426.262 425.328 426.97 426.072C427.678 426.804 428.032 427.866 428.032 429.258V435H426.394V429.402C426.394 428.418 426.142 427.662 425.638 427.134C425.134 426.606 424.45 426.342 423.586 426.342C422.686 426.342 421.966 426.636 421.426 427.224C420.886 427.8 420.616 428.646 420.616 429.762V435H418.978V425.118H420.616V427.458C420.868 426.654 421.312 426.036 421.948 425.604C422.596 425.172 423.34 424.956 424.18 424.956ZM439.042 424.992C440.002 424.992 440.812 425.232 441.472 425.712C442.144 426.192 442.612 426.834 442.876 427.638V425.118H444.514V435H442.876V432.48C442.612 433.284 442.144 433.926 441.472 434.406C440.812 434.886 440.002 435.126 439.042 435.126C438.166 435.126 437.386 434.922 436.702 434.514C436.018 434.106 435.478 433.524 435.082 432.768C434.698 432 434.506 431.1 434.506 430.068C434.506 429.036 434.698 428.136 435.082 427.368C435.478 426.6 436.018 426.012 436.702 425.604C437.386 425.196 438.166 424.992 439.042 424.992ZM439.51 426.45C438.502 426.45 437.692 426.774 437.08 427.422C436.48 428.058 436.18 428.94 436.18 430.068C436.18 431.196 436.48 432.084 437.08 432.732C437.692 433.368 438.502 433.686 439.51 433.686C440.158 433.686 440.734 433.536 441.238 433.236C441.754 432.936 442.156 432.516 442.444 431.976C442.732 431.424 442.876 430.788 442.876 430.068C442.876 429.348 442.732 428.712 442.444 428.16C442.156 427.608 441.754 427.188 441.238 426.9C440.734 426.6 440.158 426.45 439.51 426.45ZM457.022 424.992C457.898 424.992 458.678 425.196 459.362 425.604C460.046 426.012 460.58 426.6 460.964 427.368C461.36 428.136 461.558 429.036 461.558 430.068C461.558 431.1 461.36 432 460.964 432.768C460.58 433.524 460.046 434.106 459.362 434.514C458.678 434.922 457.898 435.126 457.022 435.126C456.062 435.126 455.246 434.886 454.574 434.406C453.914 433.914 453.458 433.272 453.206 432.48V435H451.568V421.68H453.206V427.638C453.458 426.846 453.914 426.21 454.574 425.73C455.246 425.238 456.062 424.992 457.022 424.992ZM456.554 426.45C455.918 426.45 455.342 426.6 454.826 426.9C454.31 427.188 453.908 427.608 453.62 428.16C453.332 428.712 453.188 429.348 453.188 430.068C453.188 430.788 453.332 431.424 453.62 431.976C453.908 432.516 454.31 432.936 454.826 433.236C455.342 433.536 455.918 433.686 456.554 433.686C457.574 433.686 458.384 433.368 458.984 432.732C459.596 432.084 459.902 431.196 459.902 430.068C459.902 428.94 459.596 428.058 458.984 427.422C458.384 426.774 457.574 426.45 456.554 426.45ZM465.335 427.116C465.659 426.432 466.133 425.904 466.757 425.532C467.381 425.148 468.125 424.956 468.989 424.956V426.738H468.485C467.561 426.738 466.805 426.978 466.217 427.458C465.629 427.926 465.335 428.706 465.335 429.798V435H463.697V425.118H465.335V427.116ZM474.655 424.992C475.615 424.992 476.425 425.232 477.085 425.712C477.757 426.192 478.225 426.834 478.489 427.638V425.118H480.127V435H478.489V432.48C478.225 433.284 477.757 433.926 477.085 434.406C476.425 434.886 475.615 435.126 474.655 435.126C473.779 435.126 472.999 434.922 472.315 434.514C471.631 434.106 471.091 433.524 470.695 432.768C470.311 432 470.119 431.1 470.119 430.068C470.119 429.036 470.311 428.136 470.695 427.368C471.091 426.6 471.631 426.012 472.315 425.604C472.999 425.196 473.779 424.992 474.655 424.992ZM475.123 426.45C474.115 426.45 473.305 426.774 472.693 427.422C472.093 428.058 471.793 428.94 471.793 430.068C471.793 431.196 472.093 432.084 472.693 432.732C473.305 433.368 474.115 433.686 475.123 433.686C475.771 433.686 476.347 433.536 476.851 433.236C477.367 432.936 477.769 432.516 478.057 431.976C478.345 431.424 478.489 430.788 478.489 430.068C478.489 429.348 478.345 428.712 478.057 428.16C477.769 427.608 477.367 427.188 476.851 426.9C476.347 426.6 475.771 426.45 475.123 426.45ZM487.936 424.956C489.088 424.956 490.018 425.328 490.726 426.072C491.434 426.804 491.788 427.866 491.788 429.258V435H490.15V429.402C490.15 428.418 489.898 427.662 489.394 427.134C488.89 426.606 488.206 426.342 487.342 426.342C486.442 426.342 485.722 426.636 485.182 427.224C484.642 427.8 484.372 428.646 484.372 429.762V435H482.734V425.118H484.372V427.458C484.624 426.654 485.068 426.036 485.704 425.604C486.352 425.172 487.096 424.956 487.936 424.956ZM498.35 424.992C499.31 424.992 500.12 425.232 500.78 425.712C501.452 426.192 501.92 426.834 502.184 427.638V421.68H503.822V435H502.184V432.48C501.92 433.284 501.452 433.926 500.78 434.406C500.12 434.886 499.31 435.126 498.35 435.126C497.474 435.126 496.694 434.922 496.01 434.514C495.326 434.106 494.786 433.524 494.39 432.768C494.006 432 493.814 431.1 493.814 430.068C493.814 429.036 494.006 428.136 494.39 427.368C494.786 426.6 495.326 426.012 496.01 425.604C496.694 425.196 497.474 424.992 498.35 424.992ZM498.818 426.45C497.81 426.45 497 426.774 496.388 427.422C495.788 428.058 495.488 428.94 495.488 430.068C495.488 431.196 495.788 432.084 496.388 432.732C497 433.368 497.81 433.686 498.818 433.686C499.466 433.686 500.042 433.536 500.546 433.236C501.062 432.936 501.464 432.516 501.752 431.976C502.04 431.424 502.184 430.788 502.184 430.068C502.184 429.348 502.04 428.712 501.752 428.16C501.464 427.608 501.062 427.188 500.546 426.9C500.042 426.6 499.466 426.45 498.818 426.45ZM516.079 424.956C517.231 424.956 518.161 425.328 518.869 426.072C519.577 426.804 519.931 427.866 519.931 429.258V435H518.293V429.402C518.293 428.418 518.041 427.662 517.537 427.134C517.033 426.606 516.349 426.342 515.485 426.342C514.585 426.342 513.865 426.636 513.325 427.224C512.785 427.8 512.515 428.646 512.515 429.762V435H510.877V425.118H512.515V427.458C512.767 426.654 513.211 426.036 513.847 425.604C514.495 425.172 515.239 424.956 516.079 424.956ZM531.533 429.51C531.533 429.858 531.509 430.158 531.461 430.41H523.559C523.595 431.538 523.913 432.384 524.513 432.948C525.125 433.512 525.869 433.794 526.745 433.794C527.537 433.794 528.197 433.596 528.725 433.2C529.265 432.792 529.595 432.252 529.715 431.58H531.461C531.341 432.264 531.071 432.876 530.651 433.416C530.243 433.956 529.709 434.376 529.049 434.676C528.389 434.976 527.645 435.126 526.817 435.126C525.869 435.126 525.029 434.922 524.297 434.514C523.565 434.106 522.989 433.524 522.569 432.768C522.161 432 521.957 431.1 521.957 430.068C521.957 429.036 522.161 428.136 522.569 427.368C522.989 426.6 523.565 426.012 524.297 425.604C525.029 425.196 525.869 424.992 526.817 424.992C527.777 424.992 528.611 425.196 529.319 425.604C530.039 426.012 530.585 426.558 530.957 427.242C531.341 427.926 531.533 428.682 531.533 429.51ZM529.877 429.618C529.913 428.886 529.793 428.274 529.517 427.782C529.241 427.29 528.863 426.924 528.383 426.684C527.903 426.444 527.381 426.324 526.817 426.324C525.917 426.324 525.161 426.606 524.549 427.17C523.937 427.722 523.607 428.538 523.559 429.618H529.877ZM547.247 425.118L544.403 435H542.639L539.921 426.954L537.185 435H535.403L532.595 425.118H534.251L536.357 433.434L539.093 425.118H540.803L543.557 433.416L545.681 425.118H547.247ZM566.794 425.118L563.95 435H562.186L559.468 426.954L556.732 435H554.95L552.142 425.118H553.798L555.904 433.434L558.64 425.118H560.35L563.104 433.416L565.228 425.118H566.794ZM577.412 429.51C577.412 429.858 577.388 430.158 577.34 430.41H569.438C569.474 431.538 569.792 432.384 570.392 432.948C571.004 433.512 571.748 433.794 572.624 433.794C573.416 433.794 574.076 433.596 574.604 433.2C575.144 432.792 575.474 432.252 575.594 431.58H577.34C577.22 432.264 576.95 432.876 576.53 433.416C576.122 433.956 575.588 434.376 574.928 434.676C574.268 434.976 573.524 435.126 572.696 435.126C571.748 435.126 570.908 434.922 570.176 434.514C569.444 434.106 568.868 433.524 568.448 432.768C568.04 432 567.836 431.1 567.836 430.068C567.836 429.036 568.04 428.136 568.448 427.368C568.868 426.6 569.444 426.012 570.176 425.604C570.908 425.196 571.748 424.992 572.696 424.992C573.656 424.992 574.49 425.196 575.198 425.604C575.918 426.012 576.464 426.558 576.836 427.242C577.22 427.926 577.412 428.682 577.412 429.51ZM575.756 429.618C575.792 428.886 575.672 428.274 575.396 427.782C575.12 427.29 574.742 426.924 574.262 426.684C573.782 426.444 573.26 426.324 572.696 426.324C571.796 426.324 571.04 426.606 570.428 427.17C569.816 427.722 569.486 428.538 569.438 429.618H575.756ZM585.008 424.992C585.884 424.992 586.664 425.196 587.348 425.604C588.032 426.012 588.566 426.6 588.95 427.368C589.346 428.136 589.544 429.036 589.544 430.068C589.544 431.1 589.346 432 588.95 432.768C588.566 433.524 588.032 434.106 587.348 434.514C586.664 434.922 585.884 435.126 585.008 435.126C584.048 435.126 583.232 434.886 582.56 434.406C581.9 433.914 581.444 433.272 581.192 432.48V435H579.554V421.68H581.192V427.638C581.444 426.846 581.9 426.21 582.56 425.73C583.232 425.238 584.048 424.992 585.008 424.992ZM584.54 426.45C583.904 426.45 583.328 426.6 582.812 426.9C582.296 427.188 581.894 427.608 581.606 428.16C581.318 428.712 581.174 429.348 581.174 430.068C581.174 430.788 581.318 431.424 581.606 431.976C581.894 432.516 582.296 432.936 582.812 433.236C583.328 433.536 583.904 433.686 584.54 433.686C585.56 433.686 586.37 433.368 586.97 432.732C587.582 432.084 587.888 431.196 587.888 430.068C587.888 428.94 587.582 428.058 586.97 427.422C586.37 426.774 585.56 426.45 584.54 426.45ZM594.779 424.992C595.895 424.992 596.789 425.286 597.461 425.874C598.145 426.45 598.559 427.23 598.703 428.214H597.137C597.065 427.626 596.819 427.146 596.399 426.774C595.991 426.39 595.439 426.198 594.743 426.198C594.155 426.198 593.693 426.342 593.357 426.63C593.033 426.906 592.871 427.284 592.871 427.764C592.871 428.124 592.979 428.418 593.195 428.646C593.423 428.862 593.699 429.03 594.023 429.15C594.359 429.258 594.815 429.378 595.391 429.51C596.123 429.678 596.711 429.852 597.155 430.032C597.611 430.2 597.995 430.476 598.307 430.86C598.631 431.244 598.793 431.76 598.793 432.408C598.793 433.212 598.487 433.866 597.875 434.37C597.275 434.874 596.471 435.126 595.463 435.126C594.287 435.126 593.327 434.844 592.583 434.28C591.839 433.716 591.401 432.93 591.269 431.922H592.853C592.913 432.522 593.171 433.008 593.627 433.38C594.095 433.752 594.707 433.938 595.463 433.938C596.027 433.938 596.465 433.794 596.777 433.506C597.101 433.218 597.263 432.84 597.263 432.372C597.263 431.988 597.149 431.682 596.921 431.454C596.693 431.226 596.411 431.052 596.075 430.932C595.739 430.812 595.277 430.686 594.689 430.554C593.957 430.386 593.369 430.218 592.925 430.05C592.493 429.882 592.121 429.618 591.809 429.258C591.509 428.886 591.359 428.388 591.359 427.764C591.359 426.936 591.665 426.27 592.277 425.766C592.889 425.25 593.723 424.992 594.779 424.992ZM600.694 422.22C600.694 421.92 600.796 421.68 601 421.5C601.204 421.308 601.474 421.212 601.81 421.212C602.146 421.212 602.416 421.308 602.62 421.5C602.824 421.68 602.926 421.92 602.926 422.22C602.926 422.52 602.824 422.766 602.62 422.958C602.416 423.138 602.146 423.228 601.81 423.228C601.474 423.228 601.204 423.138 601 422.958C600.796 422.766 600.694 422.52 600.694 422.22ZM602.62 425.118V435H600.982V425.118H602.62ZM609.969 433.56V435H608.745C607.737 435 606.981 434.76 606.477 434.28C605.985 433.8 605.739 432.996 605.739 431.868V426.54H604.263V425.118H605.739V422.652H607.395V425.118H609.951V426.54H607.395V431.904C607.395 432.54 607.509 432.978 607.737 433.218C607.977 433.446 608.385 433.56 608.961 433.56H609.969ZM621.058 429.51C621.058 429.858 621.034 430.158 620.986 430.41H613.084C613.12 431.538 613.438 432.384 614.038 432.948C614.65 433.512 615.394 433.794 616.27 433.794C617.062 433.794 617.722 433.596 618.25 433.2C618.79 432.792 619.12 432.252 619.24 431.58H620.986C620.866 432.264 620.596 432.876 620.176 433.416C619.768 433.956 619.234 434.376 618.574 434.676C617.914 434.976 617.17 435.126 616.342 435.126C615.394 435.126 614.554 434.922 613.822 434.514C613.09 434.106 612.514 433.524 612.094 432.768C611.686 432 611.482 431.1 611.482 430.068C611.482 429.036 611.686 428.136 612.094 427.368C612.514 426.6 613.09 426.012 613.822 425.604C614.554 425.196 615.394 424.992 616.342 424.992C617.302 424.992 618.136 425.196 618.844 425.604C619.564 426.012 620.11 426.558 620.482 427.242C620.866 427.926 621.058 428.682 621.058 429.51ZM619.402 429.618C619.438 428.886 619.318 428.274 619.042 427.782C618.766 427.29 618.388 426.924 617.908 426.684C617.428 426.444 616.906 426.324 616.342 426.324C615.442 426.324 614.686 426.606 614.074 427.17C613.462 427.722 613.132 428.538 613.084 429.618H619.402ZM624.407 433.074V435H622.427V433.074H624.407Z" fill="#737472"/>
<path d="M292.865 80.6853L300.113 75.2392C300.908 74.645 302 75.2392 302 76.1303V85.1413C300.312 85.3393 298.425 85.1413 296.738 84.2501C294.95 83.5569 293.66 82.2697 292.865 80.6853Z" fill="#F4C53D"/>
<path d="M280.057 90.2904L289.49 83.1609C290.78 85.1413 292.568 86.9237 294.851 88.0129C297.135 89.1022 299.617 89.4982 301.901 89.3002V101.084C297.731 101.282 293.461 100.49 289.49 98.5092C285.518 96.5287 282.341 93.7562 280.057 90.2904Z" fill="#50514F"/>
<path d="M301.9 118.808C295.248 118.907 288 117.521 281.645 114.353C275.092 111.085 269.83 106.431 265.858 100.886C266.652 100.291 267.447 99.6974 268.34 99.0042L276.681 92.7659C279.361 96.7267 283.134 99.9944 287.702 102.272C292.269 104.549 297.134 105.54 301.9 105.342V118.808Z" fill="#50514F"/>
<path fill-rule="evenodd" clip-rule="evenodd" d="M301.206 122.967C294.156 123.066 286.61 121.383 279.858 118.016C272.808 114.551 267.149 109.599 262.78 103.658C261.669 105.065 260.668 106.619 260.316 108.976C260.664 106.645 261.647 105.1 262.743 103.705C261.83 108.798 261.372 120.783 276.482 125.542C278.462 126.135 288.934 131.355 288.008 143.658C294.853 139.379 299.922 132.154 301.206 122.967ZM260 145.049C263.112 140.999 265.019 137.926 265.543 134.555C265.019 137.926 263.112 140.998 260 145.049C260 145.049 260 145.049 260 145.049Z" fill="#F4C53D"/>
<path fill-rule="evenodd" clip-rule="evenodd" d="M262.743 103.704C260.18 106.964 258.238 111.047 263.574 124.056C267.447 133.265 265.858 137.424 260 145.049C269.623 149.634 280.023 148.65 288.008 143.658C288.934 131.355 278.462 126.134 276.482 125.542C261.371 120.783 261.83 108.797 262.743 103.704Z" fill="#FEE19D"/>
<path fill-rule="evenodd" clip-rule="evenodd" d="M270.117 147.871C270.094 147.592 270.065 147.311 270.028 147.03C269.53 143.105 267.683 139.555 264.963 136.853C264.076 139.394 262.395 141.932 260 145.049C263.324 146.632 266.74 147.552 270.117 147.871Z" fill="#50514F"/>
<path d="M322 107.275C322 111.275 316 111.275 316 107.275C316 103.375 322 103.375 322 107.275ZM316.6 113.975V137.175H321.4V113.975H316.6Z" fill="#585857"/>
<path d="M332.8 113.975V139.875C332.8 145.675 330.7 148.775 325.5 148.775C323.9 148.775 322.2 148.375 320.6 147.275L322.3 143.475C323.3 143.975 324.3 144.275 325.3 144.175C327.6 144.175 328 142.575 328 139.875V113.975H332.8ZM327.4 107.175C327.4 111.175 333.4 111.175 333.4 107.175C333.4 103.275 327.4 103.275 327.4 107.175Z" fill="#585857"/>
<path d="M354.1 119.775C352.3 118.075 350.3 117.575 348 117.575C345 117.575 343.1 118.475 343.1 120.375C343.1 122.275 345.2 123.075 348.1 123.375C352.4 123.775 357.9 124.675 357.9 130.675C357.9 134.975 354.1 137.975 348.1 137.975C344.3 137.975 340.6 137.175 337.6 133.675L340.1 130.275C342.3 132.675 345.5 133.675 348.2 133.675C350.5 133.675 353.1 132.875 353.1 130.675C353.1 128.575 351.2 127.775 347.8 127.475C343.4 127.075 338.4 125.675 338.4 120.575C338.4 115.475 343.7 113.575 348 113.575C351.6 113.575 354.3 114.375 356.9 116.675L354.1 119.775Z" fill="#585857"/>
<path d="M367.6 104.475V117.775C369.1 115.075 372.9 113.675 375.7 113.675C382.4 113.675 387.4 117.875 387.4 125.675C387.4 133.275 382.3 137.675 375.6 137.675C372.5 137.675 369.4 136.475 367.6 133.575L367.3 137.275H362.8V104.475H367.6ZM367.9 125.575C367.9 130.075 371.2 133.075 375.3 133.075C379.3 133.075 382.6 130.175 382.6 125.575C382.6 120.875 379.3 118.075 375.3 118.075C371.2 118.075 367.9 121.175 367.9 125.575Z" fill="#585857"/>
<path d="M397.1 114.075L397.4 117.075C399.1 114.075 401.7 113.475 404.2 113.475C406.5 113.475 408.6 114.275 409.9 115.475L407.7 119.675C406.5 118.775 405.4 118.275 403.6 118.275C400.3 118.275 397.4 120.375 397.4 124.575V137.075H392.6V114.075H397.1Z" fill="#585857"/>
<path d="M416.2 127.475C416.6 130.975 419.5 133.275 423.7 133.275C426 133.275 429 132.375 430.4 130.775L433.5 133.775C431.1 136.375 427.1 137.675 423.6 137.675C416 137.675 411.1 132.875 411.1 125.475C411.1 118.475 416 113.475 423.2 113.475C430.7 113.475 435.7 117.975 434.8 127.475H416.2ZM430.3 123.375C430 119.675 427.3 117.775 423.5 117.775C420 117.775 417.1 119.675 416.3 123.375H430.3Z" fill="#585857"/>
<path d="M444.7 104.475V123.575L453.3 114.075H459.2V114.375L449.2 124.975L460.5 136.875V137.175H454.6L444.7 126.475V137.175H439.8V104.475H444.7Z" fill="#585857"/>
<path d="M466.1 127.475C466.5 130.975 469.4 133.275 473.6 133.275C475.9 133.275 478.9 132.375 480.3 130.775L483.4 133.775C481 136.375 477 137.675 473.5 137.675C465.9 137.675 461 132.875 461 125.475C461 118.475 465.9 113.475 473.1 113.475C480.6 113.475 485.6 117.975 484.7 127.475H466.1ZM480.3 123.375C480 119.675 477.3 117.775 473.5 117.775C470 117.775 467.1 119.675 466.3 123.375H480.3Z" fill="#585857"/>
<path d="M494.3 114.075L494.6 117.075C496.3 114.075 498.9 113.475 501.4 113.475C503.7 113.475 505.8 114.275 507.1 115.475L504.9 119.675C503.7 118.775 502.6 118.275 500.8 118.275C497.5 118.275 494.6 120.375 494.6 124.575V137.075H489.8V114.075H494.3Z" fill="#585857"/>
<path d="M326.6 84.675C325.4 83.575 324.2 83.275 322.8 83.275C320.9 83.275 319.7 83.875 319.7 84.975C319.7 86.175 321 86.675 322.9 86.875C325.6 87.075 329.1 87.675 329.1 91.475C329.1 94.175 326.7 96.075 322.9 96.075C320.5 96.075 318.2 95.575 316.2 93.375L317.8 91.175C319.2 92.675 321.2 93.275 322.9 93.375C324.3 93.375 326 92.875 326 91.475C326 90.175 324.8 89.675 322.6 89.475C319.9 89.175 316.7 88.275 316.7 85.075C316.7 81.875 320 80.675 322.8 80.675C325 80.675 326.8 81.175 328.4 82.675L326.6 84.675Z" fill="#585857"/>
<path d="M336.7 76.975V81.175H341V83.775H336.7V90.675C336.7 92.175 337.4 93.075 338.8 93.075C339.4 93.075 340.1 92.875 340.7 92.575L341.6 95.175C340.6 95.575 339.7 95.875 338.7 95.875C335.5 95.975 333.7 94.175 333.7 90.775V83.775H330.9V81.175H333.7V77.275L336.7 76.975Z" fill="#585857"/>
<path d="M346.9 81.175V88.975C346.9 91.475 348.3 93.175 350.9 93.175C353.3 93.175 355 91.175 355 88.775V81.175H358V95.775H355.2L355 93.575C353.6 95.175 352 95.975 350 95.975C346.4 95.975 343.8 93.375 343.8 88.975V81.175H346.9Z" fill="#585857"/>
<path d="M376.7 75.075V95.775H373.8L373.6 93.475C372.4 95.375 370.5 96.075 368.5 96.075C364.3 96.075 361 93.275 361 88.475C361 83.475 364.2 80.875 368.4 80.875C370.2 80.875 372.6 81.775 373.5 83.475V75.075H376.7ZM364.2 88.375C364.2 91.275 366.2 93.175 368.8 93.175C371.3 93.175 373.4 91.275 373.4 88.375C373.4 85.575 371.3 83.675 368.8 83.675C366.3 83.675 364.2 85.375 364.2 88.375Z" fill="#585857"/>
<path d="M384.3 76.875C384.3 79.375 380.5 79.375 380.5 76.875C380.5 74.375 384.3 74.375 384.3 76.875ZM380.9 81.075V95.675H383.9V81.075H380.9Z" fill="#585857"/>
<path d="M402.2 88.475C402.2 92.775 399.2 96.075 394.6 96.075C390 96.075 387.1 92.775 387.1 88.475C387.1 84.175 390.1 80.875 394.6 80.875C399.1 80.875 402.2 84.175 402.2 88.475ZM390.2 88.475C390.2 91.075 391.9 93.175 394.7 93.175C397.5 93.175 399.2 91.075 399.2 88.475C399.2 85.875 397.4 83.675 394.7 83.675C391.9 83.675 390.2 85.875 390.2 88.475Z" fill="#585857"/>
<path d="M124.56 256.88C131.76 256.88 137.707 258.773 142.4 262.56C147.147 266.347 150.213 271.467 151.6 277.92H137.12C136.053 275.307 134.4 273.253 132.16 271.76C129.973 270.267 127.36 269.52 124.32 269.52C120.32 269.52 117.093 270.987 114.64 273.92C112.187 276.853 110.96 280.773 110.96 285.68C110.96 290.587 112.187 294.507 114.64 297.44C117.093 300.32 120.32 301.76 124.32 301.76C127.36 301.76 129.973 301.013 132.16 299.52C134.4 298.027 136.053 296 137.12 293.44H151.6C150.213 299.84 147.147 304.96 142.4 308.8C137.707 312.587 131.76 314.48 124.56 314.48C119.067 314.48 114.24 313.28 110.08 310.88C105.92 308.427 102.693 305.013 100.4 300.64C98.16 296.267 97.04 291.28 97.04 285.68C97.04 280.08 98.16 275.093 100.4 270.72C102.693 266.347 105.92 262.96 110.08 260.56C114.24 258.107 119.067 256.88 124.56 256.88ZM180.147 268.8C184.574 268.8 188.52 269.733 191.987 271.6C195.507 273.413 198.254 276.053 200.227 279.52C202.254 282.987 203.267 287.04 203.267 291.68C203.267 296.32 202.254 300.373 200.227 303.84C198.254 307.307 195.507 309.973 191.987 311.84C188.52 313.653 184.574 314.56 180.147 314.56C175.72 314.56 171.747 313.653 168.227 311.84C164.707 309.973 161.934 307.307 159.907 303.84C157.934 300.373 156.947 296.32 156.947 291.68C156.947 287.04 157.934 282.987 159.907 279.52C161.934 276.053 164.707 273.413 168.227 271.6C171.747 269.733 175.72 268.8 180.147 268.8ZM180.147 280.64C177.534 280.64 175.32 281.6 173.507 283.52C171.747 285.387 170.867 288.107 170.867 291.68C170.867 295.253 171.747 297.973 173.507 299.84C175.32 301.707 177.534 302.64 180.147 302.64C182.76 302.64 184.947 301.707 186.707 299.84C188.467 297.973 189.347 295.253 189.347 291.68C189.347 288.107 188.467 285.387 186.707 283.52C184.947 281.6 182.76 280.64 180.147 280.64ZM268.201 268.88C273.694 268.88 278.014 270.587 281.161 274C284.307 277.36 285.881 282.053 285.881 288.08V314H272.281V289.68C272.281 286.853 271.507 284.667 269.961 283.12C268.467 281.52 266.414 280.72 263.801 280.72C261.081 280.72 258.921 281.573 257.321 283.28C255.774 284.933 255.001 287.28 255.001 290.32V314H241.321V289.68C241.321 286.853 240.574 284.667 239.081 283.12C237.587 281.52 235.534 280.72 232.921 280.72C230.201 280.72 228.041 281.547 226.441 283.2C224.841 284.853 224.041 287.227 224.041 290.32V314H210.361V269.36H224.041V276.96C225.214 274.453 227.001 272.48 229.401 271.04C231.854 269.6 234.707 268.88 237.961 268.88C241.374 268.88 244.387 269.68 247.001 271.28C249.614 272.827 251.587 275.067 252.921 278C254.467 275.227 256.574 273.013 259.241 271.36C261.961 269.707 264.947 268.88 268.201 268.88ZM293.69 256.8C293.69 254.72 294.437 253.013 295.93 251.68C297.423 250.293 299.397 249.6 301.85 249.6C304.303 249.6 306.277 250.293 307.77 251.68C309.263 253.013 310.01 254.72 310.01 256.8C310.01 258.827 309.263 260.533 307.77 261.92C306.277 263.253 304.303 263.92 301.85 263.92C299.397 263.92 297.423 263.253 295.93 261.92C294.437 260.533 293.69 258.827 293.69 256.8ZM308.65 269.36V314H294.97V269.36H308.65ZM346.415 268.88C351.535 268.88 355.588 270.587 358.575 274C361.615 277.413 363.135 282.107 363.135 288.08V314H349.455V289.68C349.455 286.693 348.655 284.373 347.055 282.72C345.508 281.013 343.428 280.16 340.815 280.16C338.042 280.16 335.828 281.04 334.175 282.8C332.575 284.56 331.775 287.067 331.775 290.32V314H318.095V269.36H331.775V277.52C333.055 274.853 334.948 272.747 337.455 271.2C340.015 269.653 343.002 268.88 346.415 268.88ZM389.118 268.8C392.531 268.8 395.464 269.573 397.918 271.12C400.371 272.667 402.184 274.773 403.358 277.44V269.36H416.958V313.76C416.958 317.92 416.158 321.653 414.558 324.96C412.958 328.32 410.504 330.987 407.198 332.96C403.891 334.933 399.784 335.92 394.878 335.92C388.158 335.92 382.771 334.32 378.718 331.12C374.718 327.973 372.318 323.68 371.518 318.24H385.038C385.464 320.053 386.424 321.467 387.918 322.48C389.464 323.493 391.464 324 393.918 324C396.744 324 399.011 323.173 400.718 321.52C402.478 319.92 403.358 317.333 403.358 313.76V305.92C402.184 308.587 400.371 310.693 397.918 312.24C395.464 313.787 392.531 314.56 389.118 314.56C385.438 314.56 382.131 313.653 379.197 311.84C376.318 309.973 374.024 307.307 372.318 303.84C370.664 300.373 369.838 296.32 369.838 291.68C369.838 286.987 370.664 282.933 372.318 279.52C374.024 276.053 376.318 273.413 379.197 271.6C382.131 269.733 385.438 268.8 389.118 268.8ZM393.518 280.8C390.584 280.8 388.211 281.76 386.398 283.68C384.638 285.6 383.758 288.267 383.758 291.68C383.758 295.093 384.638 297.76 386.398 299.68C388.211 301.6 390.584 302.56 393.518 302.56C396.398 302.56 398.744 301.573 400.558 299.6C402.424 297.627 403.358 294.987 403.358 291.68C403.358 288.32 402.424 285.68 400.558 283.76C398.744 281.787 396.398 280.8 393.518 280.8ZM458.632 268.8C464.285 268.8 468.792 270.213 472.152 273.04C475.565 275.867 477.699 279.6 478.552 284.24H465.752C465.379 282.427 464.525 281.013 463.192 280C461.912 278.933 460.285 278.4 458.312 278.4C456.765 278.4 455.592 278.747 454.792 279.44C453.992 280.08 453.592 281.013 453.592 282.24C453.592 283.627 454.312 284.667 455.752 285.36C457.245 286.053 459.565 286.747 462.712 287.44C466.125 288.24 468.925 289.067 471.112 289.92C473.299 290.72 475.192 292.053 476.792 293.92C478.392 295.787 479.192 298.293 479.192 301.44C479.192 304 478.499 306.267 477.112 308.24C475.725 310.213 473.725 311.76 471.112 312.88C468.499 314 465.405 314.56 461.832 314.56C455.805 314.56 450.979 313.227 447.352 310.56C443.725 307.893 441.512 304.08 440.712 299.12H453.912C454.125 301.04 454.925 302.507 456.312 303.52C457.752 304.533 459.592 305.04 461.832 305.04C463.379 305.04 464.552 304.693 465.352 304C466.152 303.253 466.552 302.293 466.552 301.12C466.552 299.573 465.805 298.48 464.312 297.84C462.872 297.147 460.499 296.427 457.192 295.68C453.885 294.987 451.165 294.24 449.032 293.44C446.899 292.64 445.059 291.36 443.512 289.6C441.965 287.787 441.192 285.333 441.192 282.24C441.192 278.24 442.712 275.013 445.752 272.56C448.792 270.053 453.085 268.8 458.632 268.8ZM507.647 268.8C512.074 268.8 516.02 269.733 519.487 271.6C523.007 273.413 525.754 276.053 527.727 279.52C529.754 282.987 530.767 287.04 530.767 291.68C530.767 296.32 529.754 300.373 527.727 303.84C525.754 307.307 523.007 309.973 519.487 311.84C516.02 313.653 512.074 314.56 507.647 314.56C503.22 314.56 499.247 313.653 495.727 311.84C492.207 309.973 489.434 307.307 487.407 303.84C485.434 300.373 484.447 296.32 484.447 291.68C484.447 287.04 485.434 282.987 487.407 279.52C489.434 276.053 492.207 273.413 495.727 271.6C499.247 269.733 503.22 268.8 507.647 268.8ZM507.647 280.64C505.034 280.64 502.82 281.6 501.007 283.52C499.247 285.387 498.367 288.107 498.367 291.68C498.367 295.253 499.247 297.973 501.007 299.84C502.82 301.707 505.034 302.64 507.647 302.64C510.26 302.64 512.447 301.707 514.207 299.84C515.967 297.973 516.847 295.253 516.847 291.68C516.847 288.107 515.967 285.387 514.207 283.52C512.447 281.6 510.26 280.64 507.647 280.64ZM558.741 268.8C563.167 268.8 567.114 269.733 570.581 271.6C574.101 273.413 576.847 276.053 578.821 279.52C580.847 282.987 581.861 287.04 581.861 291.68C581.861 296.32 580.847 300.373 578.821 303.84C576.847 307.307 574.101 309.973 570.581 311.84C567.114 313.653 563.167 314.56 558.741 314.56C554.314 314.56 550.341 313.653 546.821 311.84C543.301 309.973 540.527 307.307 538.501 303.84C536.527 300.373 535.541 296.32 535.541 291.68C535.541 287.04 536.527 282.987 538.501 279.52C540.527 276.053 543.301 273.413 546.821 271.6C550.341 269.733 554.314 268.8 558.741 268.8ZM558.741 280.64C556.127 280.64 553.914 281.6 552.101 283.52C550.341 285.387 549.461 288.107 549.461 291.68C549.461 295.253 550.341 297.973 552.101 299.84C553.914 301.707 556.127 302.64 558.741 302.64C561.354 302.64 563.541 301.707 565.301 299.84C567.061 297.973 567.941 295.253 567.941 291.68C567.941 288.107 567.061 285.387 565.301 283.52C563.541 281.6 561.354 280.64 558.741 280.64ZM617.274 268.88C622.394 268.88 626.448 270.587 629.434 274C632.474 277.413 633.994 282.107 633.994 288.08V314H620.314V289.68C620.314 286.693 619.514 284.373 617.914 282.72C616.368 281.013 614.288 280.16 611.674 280.16C608.901 280.16 606.688 281.04 605.034 282.8C603.434 284.56 602.634 287.067 602.634 290.32V314H588.954V269.36H602.634V277.52C603.914 274.853 605.808 272.747 608.314 271.2C610.874 269.653 613.861 268.88 617.274 268.88ZM661.737 254.64L660.057 293.76H648.457L646.777 254.64H661.737ZM661.417 300.32V314H647.177V300.32H661.417Z" fill="#0D2A3E"/>
<defs>
<filter id="filter0_dd_3037:18789" x="0" y="0" width="768" height="561" filterUnits="userSpaceOnUse" color-interpolation-filters="sRGB">
<feFlood flood-opacity="0" result="BackgroundImageFix"/>
<feColorMatrix in="SourceAlpha" type="matrix" values="0 0 0 0 0 0 0 0 0 0 0 0 0 0 0 0 0 0 127 0" result="hardAlpha"/>
<feOffset/>
<feGaussianBlur stdDeviation="2"/>
<feColorMatrix type="matrix" values="0 0 0 0 0.175139 0 0 0 0 0.548561 0 0 0 0 0.808333 0 0 0 0.16 0"/>
<feBlend mode="normal" in2="BackgroundImageFix" result="effect1_dropShadow_3037:18789"/>
<feColorMatrix in="SourceAlpha" type="matrix" values="0 0 0 0 0 0 0 0 0 0 0 0 0 0 0 0 0 0 127 0" result="hardAlpha"/>
<feOffset dy="16"/>
<feGaussianBlur stdDeviation="12"/>
<feColorMatrix type="matrix" values="0 0 0 0 0.175139 0 0 0 0 0.548561 0 0 0 0 0.808333 0 0 0 0.16 0"/>
<feBlend mode="normal" in2="effect1_dropShadow_3037:18789" result="effect2_dropShadow_3037:18789"/>
<feBlend mode="normal" in="SourceGraphic" in2="effect2_dropShadow_3037:18789" result="shape"/>
</filter>
</defs>
</svg>
